<svg width="604" height="409" viewBox="0 0 604 409" fill="none" xmlns="http://www.w3.org/2000/svg">
<path d="M490.23 178.329C463.386 130.009 410.596 87.6636 360.751 65.8018C308.282 42.789 235.244 27.2012 185.327 62.6078C138.323 95.9478 108.421 168.524 113.708 225.502C119.032 282.884 179.296 307.837 228.937 318.005C317.96 336.238 447.059 328.579 504.726 246.631C519.308 225.909 527.974 199.924 525.856 174.398C522.45 133.356 487.181 110.842 452.64 94.9163C353.665 49.2834 218.287 32.1106 119.727 88.8969C91.2084 105.328 65.7144 130.444 43.8082 154.742C33.2805 166.42 27.3508 177.494 28.6982 193.439C30.9952 220.62 49.3119 244.502 70.5887 260.39C127.157 302.631 203.751 318.041 272.916 320.216C324.52 321.839 375.727 311.284 423.156 291.101C460.052 275.401 488.443 254.709 503.129 216.042C515.294 184.014 525.283 131.683 501.041 101.919C492.441 91.36 474.031 80.803 462.959 75.3838C428.646 58.5893 391.126 46.1907 353.626 39.0214C282.849 25.4906 197.311 34.7965 152.527 97.2504C124.587 136.215 98.4534 188.988 90.9811 237.049C83.9529 282.253 131.608 306.626 167.514 318.005C228.908 337.46 297.752 340.866 361.734 340.977C406.277 341.054 459.822 341.972 499.321 317.882C548.215 288.061 578.369 230.286 591.455 176.117C599.196 144.08 598.535 107.685 574.994 82.1403C548.219 53.0866 498.236 50.7644 461.976 57.2026C363.277 74.7271 273.534 149.985 206.948 220.588C166.735 263.226 136.898 312.28 132.257 371.443C131.062 386.679 134.075 392.268 152.158 388.887C232.763 373.816 310.352 322.563 375.615 275.377C403.953 254.888 436.699 229.748 451.165 196.51C465.863 162.741 441.509 137.221 414.68 117.889C352.177 72.8497 271.122 50.2111 194.663 47.1292C154.697 45.5183 104.253 46.5378 66.5347 61.6251C47.1325 69.386 39.8028 91.906 36.1918 110.763C28.0352 153.359 37.6179 194.632 70.5887 225.256C105.269 257.467 138.958 272.174 183.975 287.662C242.228 307.702 304.759 318.152 366.402 317.39C416.264 316.774 476.286 308.952 519.959 282.748C550.906 264.18 563.873 229.827 564.675 194.79C566.232 126.795 535.624 53.4105 472.663 21.3316C414.884 -8.10754 335.592 0.125065 273.776 7.81855C223.168 14.1171 172.998 26.0884 126.115 46.3922C92.8153 60.8133 86.8508 85.862 82.1362 120.591C75.8395 166.974 67.5395 225.938 85.6987 270.832C107.081 323.695 167.897 346.865 219.478 358.421C301.096 376.707 403.105 377.632 478.683 337.414C520.509 315.157 530.265 279.698 531.752 235.821C532.897 202.058 532.054 166.51 520.205 134.473C479.38 24.0945 310.555 20.8933 217.635 53.3944C188.756 63.4957 138.113 79.11 127.589 112.238C118.318 141.421 119.056 176.071 122.184 206.215C123.806 221.849 125.591 241.033 137.171 253.019C157.463 274.023 194.133 280.236 221.198 285.082C270.915 293.983 323.205 297.226 373.527 291.838C401.247 288.871 433.697 282.289 455.465 263.338C474.546 246.727 485.147 219.838 487.528 195.036C492.089 147.525 466.512 112.06 425.613 89.3883C330.058 36.4175 209.876 65.0069 129.309 131.893C80.4198 172.48 42.2548 228.338 17.8878 286.679C10.2705 304.916 -5.01474 340.453 3.51478 361.861C15.2138 391.223 76.4397 391.95 100.072 394.415C181.291 402.885 267.053 405.265 347.729 390.852C412.423 379.295 495.389 357.58 531.629 296.629C545.4 273.47 548.344 244.117 551.653 217.885C553.853 200.452 557.234 180.847 547.231 165.061C527.191 133.435 486.929 113.269 452.394 102.41C412.289 89.7995 369.391 86.2336 327.582 85.8257C287.981 85.4394 246.633 86.0582 208.422 97.7418C171.731 108.961 134.705 128.561 113.708 161.867C99.997 183.615 98.2964 213.604 98.5975 238.523C99.0064 272.356 110.206 304.952 129.8 332.5C159.243 373.895 203.198 390.305 252.155 397.977C332.656 410.593 427.643 415.441 506.2 389.255C541.274 377.564 564.116 346.502 579.908 314.442C593.121 287.617 598.678 257.139 601.529 227.59C603.298 209.255 605.543 184.96 592.93 169.484C585.578 160.464 570.254 150.146 560.99 145.16C521.277 123.791 477.468 111.365 433.353 103.147C370.41 91.4223 305.311 90.0917 241.59 95.2849C211.831 97.7102 177.563 101.353 150.684 115.8C122.512 130.943 121.748 178.408 118.007 205.601C113.342 239.513 108.203 275.967 111.742 310.265C115.091 342.727 134.922 357.602 164.443 368.494C228.122 391.989 298.615 398.645 365.91 400.188C399.582 400.961 428.743 400.678 461.853 396.012C483.135 393.012 505.96 388.085 521.925 372.425C538.467 356.199 546.02 330.103 551.899 308.545C557.277 288.827 568.738 259.61 565.658 238.769C563.902 226.887 556.548 217.273 547.968 209.286C523.829 186.815 492.544 170.775 462.467 158.059C419.68 139.97 374.176 131.554 328.074 127.962C280.385 124.246 194.425 119.637 175.008 178.329C163.16 214.141 169.315 271.297 192.698 301.175C222.333 339.042 286.558 342.137 329.548 346.259C381.268 351.219 435.139 353.293 486.791 345.891C509.943 342.573 534.056 336.359 549.688 317.636C583.94 276.609 596.352 214.972 599.563 163.096C602.295 118.958 590.222 89.7033 552.513 65.4333C508.729 37.2531 458.697 32.9038 407.924 31.1593C357.403 29.4235 306.295 31.0063 256.209 38.1615C220.305 43.2906 188.609 52.3573 167.146 83.983C113.053 163.686 129.774 268.904 210.633 323.533C241.081 344.103 277.841 350.731 313.701 353.753C349.775 356.793 386.991 358.074 422.419 349.33C472.686 336.925 532.966 298.407 516.274 238.032C501.738 185.454 452.81 135.734 406.081 110.149C365.804 88.097 313.311 85.4145 268.371 84.7201C189.178 83.4964 99.5027 108.908 75.7482 194.79C66.3349 228.823 72.7499 263.666 85.3302 295.892C95.956 323.112 109.539 350.256 139.874 358.175C178.158 368.169 222.738 362.435 261.123 356.701C307.557 349.765 353.727 336.101 395.639 314.688C415.839 304.367 428.731 294.322 432.861 271.814C438.53 240.921 444.691 206.125 441.829 174.643C434.753 96.8087 338.737 56.6696 271.319 48.3577C241.13 44.6358 209.101 43.7572 181.396 57.9397C160.652 68.5583 143.476 84.3525 125.378 98.7245" stroke="#A9FF1C" stroke-linecap="round"/>
</svg>
