<svg width="871" height="404" viewBox="0 0 871 404" fill="none" xmlns="http://www.w3.org/2000/svg">
<path d="M84.6945 99.5468C64.3914 155.113 39.5006 211.231 11.2898 263.312C10.7353 264.336 -0.481257 289.286 1.91675 287.64C13.5028 279.689 22.4737 268.458 32.2475 258.362C73.2585 215.999 113.254 172.646 153.044 129.14C164.943 116.13 184.667 94.3827 197.908 79.6422C201.23 75.9443 203.317 70.4768 207.913 68.5841C208.63 68.2889 208.448 70.1964 208.124 70.9011C202.415 83.3263 192.675 95.4642 185.06 106.498C156.02 148.571 57.3085 265.451 94.1729 230.032C138.35 187.588 254.577 45.6186 220.446 96.4927C186.461 147.149 150.932 196.765 117.553 247.831C113.822 253.539 102.151 271.814 98.1749 278.583C95.2757 283.518 88.1584 297.064 93.541 295.117C100.716 292.522 113.481 279.397 116.184 276.792C148.829 245.325 179.73 211.847 210.23 178.323C228.781 157.933 240.011 144.913 257.201 124.612C264.304 116.223 277.529 93.964 288.269 88.594C293.481 85.9879 283.05 99.0362 279.949 103.97C265.837 126.421 250.308 147.868 234.663 169.266C227.108 179.599 202.892 212.254 194.854 223.398C188.818 231.767 171.276 255.828 180.215 250.674C191.596 244.113 218.582 219.976 223.605 215.604C247.169 195.098 275.788 169.271 298.906 148.308C315.325 133.419 331.52 118.283 347.983 103.443C352.684 99.2053 366.862 87.5869 363.991 93.2279C360.599 99.8893 344.877 118.868 342.928 121.242C319.867 149.319 295.951 176.728 271.734 203.809C266.301 209.885 260.668 215.784 255.305 221.923C253.397 224.108 248.792 226.103 249.934 228.769C250.945 231.126 254.487 226.37 256.569 224.872C264.864 218.905 297.592 193.201 303.118 188.854C336.033 162.961 368.162 135.054 403.484 112.395C407.729 109.672 414.865 101.754 417.28 106.182C418.147 107.77 416.599 109.837 415.595 111.342C408.753 121.605 380.112 155.27 376.839 159.155C361.913 176.873 319.473 226.62 304.382 244.25C295.204 254.973 285.989 265.666 276.79 276.371C270.543 283.64 264.112 290.754 258.043 298.171C255.891 300.802 248.75 306.337 252.146 306.491C256.572 306.692 259.372 301.332 262.677 298.382C273.109 289.07 283.192 279.374 293.324 269.736C324.566 240.018 355.312 209.77 385.896 179.376C392.869 172.447 399.824 165.501 406.749 158.523C408.55 156.708 410.351 154.893 412.12 153.047C414.236 150.839 420.963 147.569 418.228 146.201C413.639 143.907 355.083 213.679 351.353 217.711C351.024 218.066 312.367 259.799 310.069 262.364C300.553 272.988 291.692 282.98 311.649 269.631C366.69 232.816 418.259 190.606 470.57 150.098C471.294 149.537 537.824 94.5643 511.432 131.773C477.893 179.057 436.818 222.167 396.428 263.628C395.794 264.278 380.463 279.61 378.103 282.374C362.114 301.104 412.891 247.502 429.813 229.611C476.65 180.089 520.34 128.754 560.72 73.8499C584.311 41.7732 560.072 71.1458 552.294 80.1688C501.554 139.034 447.65 195.765 400.008 257.204C397.997 259.798 382.46 278.387 382.21 287.008C382.157 288.828 383.894 291.543 385.686 291.221C398.06 288.993 432.99 263.833 436.237 261.522C501.481 215.068 562.74 163.586 618.011 105.655C623.839 99.547 629.426 93.2003 635.493 87.3302C638.078 84.8295 640.324 80.6928 643.919 80.5901C646.122 80.5271 643.765 85.1069 642.865 87.1196C638.25 97.4436 620.728 126.593 615.905 134.09C587.327 178.517 551.838 216.344 517.014 255.729C474.235 304.11 611.887 166.445 647.71 112.711C651.262 107.383 640.014 122.957 635.915 127.877C610.101 158.853 582.645 188.518 554.19 217.079C533.819 237.525 466.379 291.85 489.737 274.897C517.779 254.544 545.48 233.706 573.779 213.709C575.309 212.627 589.096 203.018 591.893 201.492C597.98 198.172 584.592 213.365 579.992 218.553C547.284 255.448 510.978 289.915 480.048 328.292C476.041 333.264 468.832 346.392 475.204 346.827C497.369 348.341 527.569 329.85 544.606 318.708C581.083 294.852 616.352 262.045 643.287 227.61C666.548 197.871 590.142 281.257 563.247 307.755C532.475 338.073 500.984 367.503 469.306 396.852C463.817 401.937 458.299 408.35 477.099 388.953C514.275 350.597 550.413 311.234 585.785 271.211C597.649 257.786 632.853 217.222 620.328 230.032C593.697 257.269 563.665 281.472 534.391 305.754C533.239 306.71 503.573 331.105 500.269 333.979C489.634 343.226 493.164 343.103 504.271 337.454C539.602 319.484 569.124 292.022 597.58 264.892C604.454 258.338 609.412 253.351 615.694 246.778C618.963 243.357 621.961 240.559 613.798 250.253C588.444 280.361 560.154 308.936 529.757 333.979C528.13 335.319 522.869 338.703 524.28 337.138C541.573 317.962 560.847 300.11 579.15 281.953C622.315 239.132 666.039 196.836 710.899 155.785C719.698 147.733 734.593 134.284 744.6 126.297C749.532 122.361 762.885 112.833 748.602 127.877C739.58 137.379 728.738 147.252 719.114 155.996C714.587 160.108 709.979 164.132 705.423 168.212C702.388 170.93 695.287 177.141 704.159 169.897C730.003 148.797 753.108 126.147 776.089 101.969C806.082 70.4147 837.477 39.8532 865.923 6.86939C879.197 -8.52179 849.234 17.5039 845.281 20.6657C841.443 23.7367 840.528 25.8885 839.173 21.8242" stroke="black" stroke-width="3" stroke-linecap="round"/>
</svg>
