<svg width="390" height="59" viewBox="0 0 390 59" fill="none" xmlns="http://www.w3.org/2000/svg">
<mask id="path-1-outside-1_222_187" maskUnits="userSpaceOnUse" x="-6.87109" y="0.790039" width="404" height="58" fill="black">
<rect fill="white" x="-6.87109" y="0.790039" width="404" height="58"/>
<path d="M-4.87109 56.5728L2.63829 2.93432H15.8691C19.9933 2.93432 23.0566 4.16205 25.0592 6.6175C27.0617 9.07295 27.7887 12.2555 27.2404 16.1651L23.45 43.3419C23.0686 46.0596 22.1746 48.4078 20.7681 50.3865C19.3854 52.3651 17.6213 53.8908 15.4758 54.9636C13.3541 56.0364 10.982 56.5728 8.35972 56.5728H-4.87109ZM6.14266 46.9178H9.71856C10.8152 46.9178 11.733 46.596 12.472 45.9523C13.211 45.2848 13.652 44.4147 13.7951 43.3419L17.5855 16.1651C17.7286 15.0924 17.5378 14.2342 17.0134 13.5905C16.4889 12.923 15.6545 12.5892 14.5103 12.5892H10.9344L6.14266 46.9178Z"/>
<path d="M38.2509 57.717C34.2458 57.717 31.2063 56.5012 29.1323 54.0696C27.0821 51.638 26.3312 48.4436 26.8795 44.4862L31.0275 15.0209C31.409 12.3747 32.2791 10.0623 33.6379 8.08361C34.9968 6.08111 36.7371 4.53156 38.8587 3.43495C41.0043 2.33834 43.4001 1.79004 46.0463 1.79004C50.0513 1.79004 53.0908 3.00584 55.1648 5.43745C57.2627 7.84522 58.0375 11.0397 57.4892 15.0209L53.3411 44.4862C52.9835 47.1324 52.1134 49.4567 50.7307 51.4592C49.3719 53.4379 47.6197 54.9755 45.4742 56.0721C43.3525 57.1687 40.9447 57.717 38.2509 57.717ZM39.5739 48.0621C40.6944 48.0621 41.6241 47.7403 42.3631 47.0966C43.1021 46.4291 43.5432 45.559 43.6862 44.4862L47.8342 15.0209C47.9773 13.9481 47.7747 13.0899 47.2263 12.4462C46.7019 11.7787 45.8794 11.445 44.759 11.445C43.6385 11.445 42.7088 11.7787 41.9698 12.4462C41.2546 13.0899 40.8255 13.9481 40.6825 15.0209L36.5344 44.4862C36.3914 45.559 36.5702 46.4291 37.0708 47.0966C37.5953 47.7403 38.4296 48.0621 39.5739 48.0621Z"/>
<path d="M56.3549 56.5728L63.8643 2.93432H71.0161L78.3825 37.692L75.8078 37.7635L80.671 2.93432H89.6108L82.1014 56.5728H74.9496L67.5833 21.8151L70.1579 21.7435L65.2947 56.5728H56.3549Z"/>
<path d="M92.8888 20.8138L96.2502 13.2329H92.6743L94.1047 2.93432H103.76L102.329 13.2329L98.9679 20.8138H92.8888Z"/>
<path d="M104.39 56.5728L110.54 12.5892H102.673L104.032 2.93432H129.421L128.062 12.5892H120.195L114.045 56.5728H104.39Z"/>
<path d="M162.765 41.6255L162.336 44.4862C161.74 48.4436 160.083 51.638 157.366 54.0696C154.672 56.5012 151.298 57.717 147.246 57.717C143.241 57.717 140.201 56.5012 138.127 54.0696C136.077 51.638 135.326 48.4436 135.874 44.4862L140.022 15.0209C140.404 12.3747 141.274 10.0623 142.633 8.08361C143.992 6.08111 145.732 4.53156 147.854 3.43495C149.975 2.33834 152.371 1.79004 155.041 1.79004C159.046 1.79004 162.098 3.00584 164.196 5.43745C166.317 7.84522 167.08 11.0397 166.484 15.0209L166.055 17.8816H156.4L156.829 15.0209C157.02 13.8766 156.805 12.9945 156.186 12.3747C155.59 11.7549 154.767 11.445 153.718 11.445C152.622 11.445 151.704 11.7787 150.965 12.4462C150.25 13.0899 149.82 13.9481 149.677 15.0209L145.529 44.4862C145.386 45.559 145.565 46.4291 146.066 47.0966C146.59 47.7403 147.425 48.0621 148.569 48.0621C149.618 48.0621 150.524 47.7641 151.287 47.1682C152.049 46.5483 152.514 45.6544 152.681 44.4862L153.11 41.6255H162.765Z"/>
<path d="M175.554 57.717C171.549 57.717 168.51 56.5012 166.436 54.0696C164.385 51.638 163.634 48.4436 164.183 44.4862L168.331 15.0209C168.712 12.3747 169.582 10.0623 170.941 8.08361C172.3 6.08111 174.04 4.53156 176.162 3.43495C178.307 2.33834 180.703 1.79004 183.35 1.79004C187.354 1.79004 190.394 3.00584 192.468 5.43745C194.566 7.84522 195.341 11.0397 194.792 15.0209L190.644 44.4862C190.287 47.1324 189.417 49.4567 188.034 51.4592C186.675 53.4379 184.923 54.9755 182.777 56.0721C180.656 57.1687 178.248 57.717 175.554 57.717ZM176.877 48.0621C177.998 48.0621 178.927 47.7403 179.666 47.0966C180.405 46.4291 180.846 45.559 180.989 44.4862L185.137 15.0209C185.28 13.9481 185.078 13.0899 184.53 12.4462C184.005 11.7787 183.183 11.445 182.062 11.445C180.942 11.445 180.012 11.7787 179.273 12.4462C178.558 13.0899 178.129 13.9481 177.986 15.0209L173.838 44.4862C173.695 45.559 173.873 46.4291 174.374 47.0966C174.898 47.7403 175.733 48.0621 176.877 48.0621Z"/>
<path d="M193.658 56.5728L201.168 2.93432H208.319L215.686 37.692L213.111 37.7635L217.974 2.93432H226.914L219.405 56.5728H212.253L204.886 21.8151L207.461 21.7435L202.598 56.5728H193.658Z"/>
<path d="M228.261 56.5728L234.412 12.5892H226.545L227.903 2.93432H253.292L251.934 12.5892H244.067L237.916 56.5728H228.261Z"/>
<path d="M241.096 56.5728L258.761 2.93432H269.203L271.634 56.5728H261.765L261.693 48.2052H253.397L250.966 56.5728H241.096ZM256.187 38.5502H261.622L261.479 15.9506H262.766L256.187 38.5502Z"/>
<path d="M299.348 41.6255L298.919 44.4862C298.323 48.4436 296.666 51.638 293.948 54.0696C291.254 56.5012 287.881 57.717 283.828 57.717C279.823 57.717 276.784 56.5012 274.71 54.0696C272.66 51.638 271.909 48.4436 272.457 44.4862L276.605 15.0209C276.986 12.3747 277.857 10.0623 279.215 8.08361C280.574 6.08111 282.314 4.53156 284.436 3.43495C286.558 2.33834 288.954 1.79004 291.624 1.79004C295.629 1.79004 298.68 3.00584 300.778 5.43745C302.9 7.84522 303.663 11.0397 303.067 15.0209L302.637 17.8816H292.983L293.412 15.0209C293.602 13.8766 293.388 12.9945 292.768 12.3747C292.172 11.7549 291.35 11.445 290.301 11.445C289.204 11.445 288.286 11.7787 287.547 12.4462C286.832 13.0899 286.403 13.9481 286.26 15.0209L282.112 44.4862C281.969 45.559 282.148 46.4291 282.648 47.0966C283.173 47.7403 284.007 48.0621 285.151 48.0621C286.2 48.0621 287.106 47.7641 287.869 47.1682C288.632 46.5483 289.097 45.6544 289.264 44.4862L289.693 41.6255H299.348Z"/>
<path d="M303.268 56.5728L309.419 12.5892H301.552L302.911 2.93432H328.299L326.941 12.5892H319.074L312.923 56.5728H303.268Z"/>
<path d="M367.508 2.93432L361.715 44.4862C361.334 47.2039 360.452 49.5521 359.069 51.5307C357.686 53.5094 355.922 55.0351 353.777 56.1079C351.655 57.1807 349.271 57.717 346.625 57.717C342.739 57.717 339.723 56.537 337.578 54.1769C335.456 51.8168 334.681 48.5866 335.253 44.4862L341.046 2.93432H350.701L344.908 44.4862C344.765 45.559 344.944 46.4291 345.445 47.0966C345.969 47.7403 346.804 48.0621 347.948 48.0621C349.068 48.0621 349.998 47.7403 350.737 47.0966C351.476 46.4291 351.917 45.559 352.06 44.4862L357.853 2.93432H367.508Z"/>
<path d="M376.472 57.717C372.443 57.717 369.38 56.5012 367.282 54.0696C365.208 51.638 364.469 48.4436 365.065 44.4862L365.494 41.6255H375.149L374.72 44.4862C374.577 45.4398 374.732 46.2742 375.185 46.9894C375.661 47.7045 376.52 48.0621 377.759 48.0621C378.903 48.0621 379.833 47.7403 380.548 47.0966C381.264 46.4291 381.705 45.559 381.871 44.4862L382.658 38.9794C382.753 38.3595 382.801 37.8708 382.801 37.5132C382.801 37.1556 382.706 36.8696 382.515 36.655C382.348 36.4405 382.026 36.2497 381.55 36.0829C381.097 35.8922 380.441 35.6657 379.583 35.4035C376.198 34.3307 373.635 33.4129 371.895 32.65C370.154 31.8633 368.986 31.0528 368.39 30.2184C367.794 29.3602 367.544 28.3113 367.639 27.0716C367.735 25.832 367.925 24.199 368.212 22.1726L369.213 15.0209C369.594 12.3747 370.452 10.0623 371.787 8.08361C373.146 6.10495 374.887 4.56732 377.008 3.47071C379.154 2.35026 381.562 1.79004 384.232 1.79004C388.237 1.79004 391.288 3.00584 393.386 5.43745C395.508 7.84522 396.27 11.0397 395.674 15.0209L395.245 17.8816H385.59L386.019 15.0209C386.21 13.8766 386.008 12.9945 385.412 12.3747C384.816 11.7549 383.993 11.445 382.944 11.445C381.8 11.445 380.87 11.7787 380.155 12.4462C379.44 13.0899 379.011 13.9481 378.868 15.0209L377.866 22.1726C377.771 22.7925 377.723 23.2812 377.723 23.6388C377.723 23.9963 377.807 24.2824 377.974 24.497C378.164 24.7115 378.486 24.9142 378.939 25.1049C379.416 25.2718 380.084 25.4863 380.942 25.7485C384.351 26.8213 386.925 27.751 388.666 28.5377C390.406 29.3244 391.562 30.1469 392.134 31.0051C392.73 31.8633 392.981 32.9122 392.885 34.1519C392.79 35.3915 392.599 37.0007 392.313 38.9794L391.526 44.4862C390.954 48.4436 389.309 51.638 386.592 54.0696C383.898 56.5012 380.525 57.717 376.472 57.717Z"/>
</mask>
<path d="M-4.87109 56.5728L2.63829 2.93432H15.8691C19.9933 2.93432 23.0566 4.16205 25.0592 6.6175C27.0617 9.07295 27.7887 12.2555 27.2404 16.1651L23.45 43.3419C23.0686 46.0596 22.1746 48.4078 20.7681 50.3865C19.3854 52.3651 17.6213 53.8908 15.4758 54.9636C13.3541 56.0364 10.982 56.5728 8.35972 56.5728H-4.87109ZM6.14266 46.9178H9.71856C10.8152 46.9178 11.733 46.596 12.472 45.9523C13.211 45.2848 13.652 44.4147 13.7951 43.3419L17.5855 16.1651C17.7286 15.0924 17.5378 14.2342 17.0134 13.5905C16.4889 12.923 15.6545 12.5892 14.5103 12.5892H10.9344L6.14266 46.9178Z" stroke="white" stroke-width="2" mask="url(#path-1-outside-1_222_187)"/>
<path d="M38.2509 57.717C34.2458 57.717 31.2063 56.5012 29.1323 54.0696C27.0821 51.638 26.3312 48.4436 26.8795 44.4862L31.0275 15.0209C31.409 12.3747 32.2791 10.0623 33.6379 8.08361C34.9968 6.08111 36.7371 4.53156 38.8587 3.43495C41.0043 2.33834 43.4001 1.79004 46.0463 1.79004C50.0513 1.79004 53.0908 3.00584 55.1648 5.43745C57.2627 7.84522 58.0375 11.0397 57.4892 15.0209L53.3411 44.4862C52.9835 47.1324 52.1134 49.4567 50.7307 51.4592C49.3719 53.4379 47.6197 54.9755 45.4742 56.0721C43.3525 57.1687 40.9447 57.717 38.2509 57.717ZM39.5739 48.0621C40.6944 48.0621 41.6241 47.7403 42.3631 47.0966C43.1021 46.4291 43.5432 45.559 43.6862 44.4862L47.8342 15.0209C47.9773 13.9481 47.7747 13.0899 47.2263 12.4462C46.7019 11.7787 45.8794 11.445 44.759 11.445C43.6385 11.445 42.7088 11.7787 41.9698 12.4462C41.2546 13.0899 40.8255 13.9481 40.6825 15.0209L36.5344 44.4862C36.3914 45.559 36.5702 46.4291 37.0708 47.0966C37.5953 47.7403 38.4296 48.0621 39.5739 48.0621Z" stroke="white" stroke-width="2" mask="url(#path-1-outside-1_222_187)"/>
<path d="M56.3549 56.5728L63.8643 2.93432H71.0161L78.3825 37.692L75.8078 37.7635L80.671 2.93432H89.6108L82.1014 56.5728H74.9496L67.5833 21.8151L70.1579 21.7435L65.2947 56.5728H56.3549Z" stroke="white" stroke-width="2" mask="url(#path-1-outside-1_222_187)"/>
<path d="M92.8888 20.8138L96.2502 13.2329H92.6743L94.1047 2.93432H103.76L102.329 13.2329L98.9679 20.8138H92.8888Z" stroke="white" stroke-width="2" mask="url(#path-1-outside-1_222_187)"/>
<path d="M104.39 56.5728L110.54 12.5892H102.673L104.032 2.93432H129.421L128.062 12.5892H120.195L114.045 56.5728H104.39Z" stroke="white" stroke-width="2" mask="url(#path-1-outside-1_222_187)"/>
<path d="M162.765 41.6255L162.336 44.4862C161.74 48.4436 160.083 51.638 157.366 54.0696C154.672 56.5012 151.298 57.717 147.246 57.717C143.241 57.717 140.201 56.5012 138.127 54.0696C136.077 51.638 135.326 48.4436 135.874 44.4862L140.022 15.0209C140.404 12.3747 141.274 10.0623 142.633 8.08361C143.992 6.08111 145.732 4.53156 147.854 3.43495C149.975 2.33834 152.371 1.79004 155.041 1.79004C159.046 1.79004 162.098 3.00584 164.196 5.43745C166.317 7.84522 167.08 11.0397 166.484 15.0209L166.055 17.8816H156.4L156.829 15.0209C157.02 13.8766 156.805 12.9945 156.186 12.3747C155.59 11.7549 154.767 11.445 153.718 11.445C152.622 11.445 151.704 11.7787 150.965 12.4462C150.25 13.0899 149.82 13.9481 149.677 15.0209L145.529 44.4862C145.386 45.559 145.565 46.4291 146.066 47.0966C146.59 47.7403 147.425 48.0621 148.569 48.0621C149.618 48.0621 150.524 47.7641 151.287 47.1682C152.049 46.5483 152.514 45.6544 152.681 44.4862L153.11 41.6255H162.765Z" stroke="white" stroke-width="2" mask="url(#path-1-outside-1_222_187)"/>
<path d="M175.554 57.717C171.549 57.717 168.51 56.5012 166.436 54.0696C164.385 51.638 163.634 48.4436 164.183 44.4862L168.331 15.0209C168.712 12.3747 169.582 10.0623 170.941 8.08361C172.3 6.08111 174.04 4.53156 176.162 3.43495C178.307 2.33834 180.703 1.79004 183.35 1.79004C187.354 1.79004 190.394 3.00584 192.468 5.43745C194.566 7.84522 195.341 11.0397 194.792 15.0209L190.644 44.4862C190.287 47.1324 189.417 49.4567 188.034 51.4592C186.675 53.4379 184.923 54.9755 182.777 56.0721C180.656 57.1687 178.248 57.717 175.554 57.717ZM176.877 48.0621C177.998 48.0621 178.927 47.7403 179.666 47.0966C180.405 46.4291 180.846 45.559 180.989 44.4862L185.137 15.0209C185.28 13.9481 185.078 13.0899 184.53 12.4462C184.005 11.7787 183.183 11.445 182.062 11.445C180.942 11.445 180.012 11.7787 179.273 12.4462C178.558 13.0899 178.129 13.9481 177.986 15.0209L173.838 44.4862C173.695 45.559 173.873 46.4291 174.374 47.0966C174.898 47.7403 175.733 48.0621 176.877 48.0621Z" stroke="white" stroke-width="2" mask="url(#path-1-outside-1_222_187)"/>
<path d="M193.658 56.5728L201.168 2.93432H208.319L215.686 37.692L213.111 37.7635L217.974 2.93432H226.914L219.405 56.5728H212.253L204.886 21.8151L207.461 21.7435L202.598 56.5728H193.658Z" stroke="white" stroke-width="2" mask="url(#path-1-outside-1_222_187)"/>
<path d="M228.261 56.5728L234.412 12.5892H226.545L227.903 2.93432H253.292L251.934 12.5892H244.067L237.916 56.5728H228.261Z" stroke="white" stroke-width="2" mask="url(#path-1-outside-1_222_187)"/>
<path d="M241.096 56.5728L258.761 2.93432H269.203L271.634 56.5728H261.765L261.693 48.2052H253.397L250.966 56.5728H241.096ZM256.187 38.5502H261.622L261.479 15.9506H262.766L256.187 38.5502Z" stroke="white" stroke-width="2" mask="url(#path-1-outside-1_222_187)"/>
<path d="M299.348 41.6255L298.919 44.4862C298.323 48.4436 296.666 51.638 293.948 54.0696C291.254 56.5012 287.881 57.717 283.828 57.717C279.823 57.717 276.784 56.5012 274.71 54.0696C272.66 51.638 271.909 48.4436 272.457 44.4862L276.605 15.0209C276.986 12.3747 277.857 10.0623 279.215 8.08361C280.574 6.08111 282.314 4.53156 284.436 3.43495C286.558 2.33834 288.954 1.79004 291.624 1.79004C295.629 1.79004 298.68 3.00584 300.778 5.43745C302.9 7.84522 303.663 11.0397 303.067 15.0209L302.637 17.8816H292.983L293.412 15.0209C293.602 13.8766 293.388 12.9945 292.768 12.3747C292.172 11.7549 291.35 11.445 290.301 11.445C289.204 11.445 288.286 11.7787 287.547 12.4462C286.832 13.0899 286.403 13.9481 286.26 15.0209L282.112 44.4862C281.969 45.559 282.148 46.4291 282.648 47.0966C283.173 47.7403 284.007 48.0621 285.151 48.0621C286.2 48.0621 287.106 47.7641 287.869 47.1682C288.632 46.5483 289.097 45.6544 289.264 44.4862L289.693 41.6255H299.348Z" stroke="white" stroke-width="2" mask="url(#path-1-outside-1_222_187)"/>
<path d="M303.268 56.5728L309.419 12.5892H301.552L302.911 2.93432H328.299L326.941 12.5892H319.074L312.923 56.5728H303.268Z" stroke="white" stroke-width="2" mask="url(#path-1-outside-1_222_187)"/>
<path d="M367.508 2.93432L361.715 44.4862C361.334 47.2039 360.452 49.5521 359.069 51.5307C357.686 53.5094 355.922 55.0351 353.777 56.1079C351.655 57.1807 349.271 57.717 346.625 57.717C342.739 57.717 339.723 56.537 337.578 54.1769C335.456 51.8168 334.681 48.5866 335.253 44.4862L341.046 2.93432H350.701L344.908 44.4862C344.765 45.559 344.944 46.4291 345.445 47.0966C345.969 47.7403 346.804 48.0621 347.948 48.0621C349.068 48.0621 349.998 47.7403 350.737 47.0966C351.476 46.4291 351.917 45.559 352.06 44.4862L357.853 2.93432H367.508Z" stroke="white" stroke-width="2" mask="url(#path-1-outside-1_222_187)"/>
<path d="M376.472 57.717C372.443 57.717 369.38 56.5012 367.282 54.0696C365.208 51.638 364.469 48.4436 365.065 44.4862L365.494 41.6255H375.149L374.72 44.4862C374.577 45.4398 374.732 46.2742 375.185 46.9894C375.661 47.7045 376.52 48.0621 377.759 48.0621C378.903 48.0621 379.833 47.7403 380.548 47.0966C381.264 46.4291 381.705 45.559 381.871 44.4862L382.658 38.9794C382.753 38.3595 382.801 37.8708 382.801 37.5132C382.801 37.1556 382.706 36.8696 382.515 36.655C382.348 36.4405 382.026 36.2497 381.55 36.0829C381.097 35.8922 380.441 35.6657 379.583 35.4035C376.198 34.3307 373.635 33.4129 371.895 32.65C370.154 31.8633 368.986 31.0528 368.39 30.2184C367.794 29.3602 367.544 28.3113 367.639 27.0716C367.735 25.832 367.925 24.199 368.212 22.1726L369.213 15.0209C369.594 12.3747 370.452 10.0623 371.787 8.08361C373.146 6.10495 374.887 4.56732 377.008 3.47071C379.154 2.35026 381.562 1.79004 384.232 1.79004C388.237 1.79004 391.288 3.00584 393.386 5.43745C395.508 7.84522 396.27 11.0397 395.674 15.0209L395.245 17.8816H385.59L386.019 15.0209C386.21 13.8766 386.008 12.9945 385.412 12.3747C384.816 11.7549 383.993 11.445 382.944 11.445C381.8 11.445 380.87 11.7787 380.155 12.4462C379.44 13.0899 379.011 13.9481 378.868 15.0209L377.866 22.1726C377.771 22.7925 377.723 23.2812 377.723 23.6388C377.723 23.9963 377.807 24.2824 377.974 24.497C378.164 24.7115 378.486 24.9142 378.939 25.1049C379.416 25.2718 380.084 25.4863 380.942 25.7485C384.351 26.8213 386.925 27.751 388.666 28.5377C390.406 29.3244 391.562 30.1469 392.134 31.0051C392.73 31.8633 392.981 32.9122 392.885 34.1519C392.79 35.3915 392.599 37.0007 392.313 38.9794L391.526 44.4862C390.954 48.4436 389.309 51.638 386.592 54.0696C383.898 56.5012 380.525 57.717 376.472 57.717Z" stroke="white" stroke-width="2" mask="url(#path-1-outside-1_222_187)"/>
</svg>
