<svg width="1512" height="216" viewBox="0 0 1512 216" fill="none" xmlns="http://www.w3.org/2000/svg">
<mask id="path-1-outside-1_211_480" maskUnits="userSpaceOnUse" x="-8.39624" y="0.272461" width="1533" height="216" fill="black">
<rect fill="white" x="-8.39624" y="0.272461" width="1533" height="216"/>
<path d="M-6.39624 210.39L22.2688 5.64045H72.7738C88.5168 5.64045 100.21 10.327 107.854 19.7C115.498 29.073 118.274 41.2215 116.181 56.1455L101.712 159.885C100.256 170.259 96.8433 179.223 91.4743 186.776C86.1963 194.329 79.4623 200.153 71.2723 204.248C63.1733 208.343 54.1188 210.39 44.1088 210.39H-6.39624ZM35.6458 173.535H49.2958C53.4818 173.535 56.9853 172.307 59.8063 169.85C62.6273 167.302 64.3108 163.98 64.8568 159.885L79.3258 56.1455C79.8718 52.0505 79.1438 48.7745 77.1418 46.3175C75.1398 43.7695 71.9548 42.4955 67.5868 42.4955H53.9368L35.6458 173.535Z"/>
<path d="M158.21 214.758C142.922 214.758 131.319 210.117 123.402 200.835C115.576 191.553 112.71 179.359 114.803 164.253L130.637 51.7775C132.093 41.6765 135.414 32.8495 140.601 25.2965C145.788 17.6525 152.431 11.7375 160.53 7.55146C168.72 3.36546 177.866 1.27246 187.967 1.27246C203.255 1.27246 214.857 5.91346 222.774 15.1955C230.782 24.3865 233.74 36.5805 231.647 51.7775L215.813 164.253C214.448 174.354 211.126 183.227 205.848 190.871C200.661 198.424 193.973 204.293 185.783 208.479C177.684 212.665 168.493 214.758 158.21 214.758ZM163.26 177.903C167.537 177.903 171.086 176.675 173.907 174.218C176.728 171.67 178.412 168.348 178.958 164.253L194.792 51.7775C195.338 47.6825 194.564 44.4065 192.471 41.9495C190.469 39.4015 187.33 38.1275 183.053 38.1275C178.776 38.1275 175.227 39.4015 172.406 41.9495C169.676 44.4065 168.038 47.6825 167.492 51.7775L151.658 164.253C151.112 168.348 151.794 171.67 153.705 174.218C155.707 176.675 158.892 177.903 163.26 177.903Z"/>
<path d="M227.317 210.39L255.982 5.64045H283.282L311.401 138.318L301.573 138.591L320.137 5.64045H354.262L325.597 210.39H298.297L270.178 77.7125L280.006 77.4395L261.442 210.39H227.317Z"/>
<path d="M366.776 73.8905L379.607 44.9525H365.957L371.417 5.64045H408.272L402.812 44.9525L389.981 73.8905H366.776Z"/>
<path d="M410.677 210.39L434.155 42.4955H404.125L409.312 5.64045H506.227L501.04 42.4955H471.01L447.532 210.39H410.677Z"/>
<path d="M633.509 153.333L631.871 164.253C629.596 179.359 623.272 191.553 612.898 200.835C602.615 210.117 589.738 214.758 574.268 214.758C558.98 214.758 547.378 210.117 539.461 200.835C531.635 191.553 528.768 179.359 530.861 164.253L546.695 51.7775C548.151 41.6765 551.473 32.8495 556.66 25.2965C561.847 17.6525 568.49 11.7375 576.589 7.55146C584.688 3.36546 593.833 1.27246 604.025 1.27246C619.313 1.27246 630.961 5.91346 638.969 15.1955C647.068 24.3865 649.98 36.5805 647.705 51.7775L646.067 62.6975H609.212L610.85 51.7775C611.578 47.4095 610.759 44.0425 608.393 41.6765C606.118 39.3105 602.979 38.1275 598.975 38.1275C594.789 38.1275 591.285 39.4015 588.464 41.9495C585.734 44.4065 584.096 47.6825 583.55 51.7775L567.716 164.253C567.17 168.348 567.853 171.67 569.764 174.218C571.766 176.675 574.951 177.903 579.319 177.903C583.323 177.903 586.781 176.766 589.693 174.491C592.605 172.125 594.379 168.712 595.016 164.253L596.654 153.333H633.509Z"/>
<path d="M682.327 214.758C667.039 214.758 655.437 210.117 647.52 200.835C639.694 191.553 636.827 179.359 638.92 164.253L654.754 51.7775C656.21 41.6765 659.532 32.8495 664.719 25.2965C669.906 17.6525 676.549 11.7375 684.648 7.55146C692.838 3.36546 701.983 1.27246 712.084 1.27246C727.372 1.27246 738.975 5.91346 746.892 15.1955C754.9 24.3865 757.857 36.5805 755.764 51.7775L739.93 164.253C738.565 174.354 735.244 183.227 729.966 190.871C724.779 198.424 718.09 204.293 709.9 208.479C701.801 212.665 692.61 214.758 682.327 214.758ZM687.378 177.903C691.655 177.903 695.204 176.675 698.025 174.218C700.846 171.67 702.529 168.348 703.075 164.253L718.909 51.7775C719.455 47.6825 718.682 44.4065 716.589 41.9495C714.587 39.4015 711.447 38.1275 707.17 38.1275C702.893 38.1275 699.344 39.4015 696.523 41.9495C693.793 44.4065 692.155 47.6825 691.609 51.7775L675.775 164.253C675.229 168.348 675.912 171.67 677.823 174.218C679.825 176.675 683.01 177.903 687.378 177.903Z"/>
<path d="M751.435 210.39L780.1 5.64045H807.4L835.519 138.318L825.691 138.591L844.255 5.64045H878.38L849.715 210.39H822.415L794.296 77.7125L804.124 77.4395L785.56 210.39H751.435Z"/>
<path d="M883.522 210.39L907 42.4955H876.97L882.157 5.64045H979.072L973.885 42.4955H943.855L920.377 210.39H883.522Z"/>
<path d="M932.517 210.39L999.948 5.64045H1039.81L1049.09 210.39H1011.41L1011.14 178.449H979.473L970.191 210.39H932.517ZM990.12 141.594H1010.87L1010.32 55.3265H1015.24L990.12 141.594Z"/>
<path d="M1154.88 153.333L1153.24 164.253C1150.96 179.359 1144.64 191.553 1134.26 200.835C1123.98 210.117 1111.1 214.758 1095.63 214.758C1080.35 214.758 1068.74 210.117 1060.83 200.835C1053 191.553 1050.13 179.359 1052.23 164.253L1068.06 51.7775C1069.52 41.6765 1072.84 32.8495 1078.03 25.2965C1083.21 17.6525 1089.86 11.7375 1097.95 7.55146C1106.05 3.36546 1115.2 1.27246 1125.39 1.27246C1140.68 1.27246 1152.33 5.91346 1160.34 15.1955C1168.43 24.3865 1171.35 36.5805 1169.07 51.7775L1167.43 62.6975H1130.58L1132.22 51.7775C1132.94 47.4095 1132.13 44.0425 1129.76 41.6765C1127.48 39.3105 1124.34 38.1275 1120.34 38.1275C1116.15 38.1275 1112.65 39.4015 1109.83 41.9495C1107.1 44.4065 1105.46 47.6825 1104.92 51.7775L1089.08 164.253C1088.54 168.348 1089.22 171.67 1091.13 174.218C1093.13 176.675 1096.32 177.903 1100.68 177.903C1104.69 177.903 1108.15 176.766 1111.06 174.491C1113.97 172.125 1115.75 168.712 1116.38 164.253L1118.02 153.333H1154.88Z"/>
<path d="M1169.84 210.39L1193.32 42.4955H1163.29L1168.48 5.64045H1265.39L1260.2 42.4955H1230.17L1206.7 210.39H1169.84Z"/>
<path d="M1415.06 5.64045L1392.95 164.253C1391.49 174.627 1388.12 183.591 1382.85 191.144C1377.57 198.697 1370.83 204.521 1362.64 208.616C1354.54 212.711 1345.44 214.758 1335.34 214.758C1320.51 214.758 1309 210.254 1300.81 201.245C1292.71 192.236 1289.75 179.905 1291.94 164.253L1314.05 5.64045H1350.9L1328.79 164.253C1328.25 168.348 1328.93 171.67 1330.84 174.218C1332.84 176.675 1336.03 177.903 1340.39 177.903C1344.67 177.903 1348.22 176.675 1351.04 174.218C1353.86 171.67 1355.55 168.348 1356.09 164.253L1378.2 5.64045H1415.06Z"/>
<path d="M1449.28 214.758C1433.9 214.758 1422.2 210.117 1414.2 200.835C1406.28 191.553 1403.46 179.359 1405.73 164.253L1407.37 153.333H1444.23L1442.59 164.253C1442.04 167.893 1442.63 171.078 1444.36 173.808C1446.18 176.538 1449.46 177.903 1454.19 177.903C1458.56 177.903 1462.11 176.675 1464.84 174.218C1467.57 171.67 1469.25 168.348 1469.89 164.253L1472.89 143.232C1473.25 140.866 1473.44 139.001 1473.44 137.636C1473.44 136.271 1473.07 135.179 1472.34 134.36C1471.71 133.541 1470.48 132.813 1468.66 132.176C1466.93 131.448 1464.43 130.583 1461.15 129.582C1448.23 125.487 1438.45 121.984 1431.8 119.072C1425.16 116.069 1420.7 112.975 1418.43 109.79C1416.15 106.514 1415.2 102.51 1415.56 97.778C1415.92 93.046 1416.65 86.8125 1417.74 79.0775L1421.57 51.7775C1423.02 41.6765 1426.3 32.8495 1431.39 25.2965C1436.58 17.7435 1443.22 11.874 1451.32 7.68797C1459.51 3.41096 1468.7 1.27246 1478.9 1.27246C1494.18 1.27246 1505.83 5.91346 1513.84 15.1955C1521.94 24.3865 1524.85 36.5805 1522.58 51.7775L1520.94 62.6975H1484.08L1485.72 51.7775C1486.45 47.4095 1485.68 44.0425 1483.4 41.6765C1481.13 39.3105 1477.99 38.1275 1473.98 38.1275C1469.61 38.1275 1466.07 39.4015 1463.34 41.9495C1460.61 44.4065 1458.97 47.6825 1458.42 51.7775L1454.6 79.0775C1454.24 81.4435 1454.05 83.309 1454.05 84.674C1454.05 86.039 1454.37 87.131 1455.01 87.95C1455.74 88.769 1456.97 89.5425 1458.69 90.2705C1460.51 90.9075 1463.06 91.7265 1466.34 92.7275C1479.35 96.8225 1489.18 100.371 1495.82 103.374C1502.47 106.377 1506.88 109.517 1509.06 112.793C1511.34 116.069 1512.29 120.073 1511.93 124.805C1511.57 129.537 1510.84 135.679 1509.75 143.232L1506.74 164.253C1504.56 179.359 1498.28 191.553 1487.91 200.835C1477.62 210.117 1464.75 214.758 1449.28 214.758Z"/>
</mask>
<path d="M-6.39624 210.39L22.2688 5.64045H72.7738C88.5168 5.64045 100.21 10.327 107.854 19.7C115.498 29.073 118.274 41.2215 116.181 56.1455L101.712 159.885C100.256 170.259 96.8433 179.223 91.4743 186.776C86.1963 194.329 79.4623 200.153 71.2723 204.248C63.1733 208.343 54.1188 210.39 44.1088 210.39H-6.39624ZM35.6458 173.535H49.2958C53.4818 173.535 56.9853 172.307 59.8063 169.85C62.6273 167.302 64.3108 163.98 64.8568 159.885L79.3258 56.1455C79.8718 52.0505 79.1438 48.7745 77.1418 46.3175C75.1398 43.7695 71.9548 42.4955 67.5868 42.4955H53.9368L35.6458 173.535Z" stroke="white" stroke-width="2" mask="url(#path-1-outside-1_211_480)"/>
<path d="M158.21 214.758C142.922 214.758 131.319 210.117 123.402 200.835C115.576 191.553 112.71 179.359 114.803 164.253L130.637 51.7775C132.093 41.6765 135.414 32.8495 140.601 25.2965C145.788 17.6525 152.431 11.7375 160.53 7.55146C168.72 3.36546 177.866 1.27246 187.967 1.27246C203.255 1.27246 214.857 5.91346 222.774 15.1955C230.782 24.3865 233.74 36.5805 231.647 51.7775L215.813 164.253C214.448 174.354 211.126 183.227 205.848 190.871C200.661 198.424 193.973 204.293 185.783 208.479C177.684 212.665 168.493 214.758 158.21 214.758ZM163.26 177.903C167.537 177.903 171.086 176.675 173.907 174.218C176.728 171.67 178.412 168.348 178.958 164.253L194.792 51.7775C195.338 47.6825 194.564 44.4065 192.471 41.9495C190.469 39.4015 187.33 38.1275 183.053 38.1275C178.776 38.1275 175.227 39.4015 172.406 41.9495C169.676 44.4065 168.038 47.6825 167.492 51.7775L151.658 164.253C151.112 168.348 151.794 171.67 153.705 174.218C155.707 176.675 158.892 177.903 163.26 177.903Z" stroke="white" stroke-width="2" mask="url(#path-1-outside-1_211_480)"/>
<path d="M227.317 210.39L255.982 5.64045H283.282L311.401 138.318L301.573 138.591L320.137 5.64045H354.262L325.597 210.39H298.297L270.178 77.7125L280.006 77.4395L261.442 210.39H227.317Z" stroke="white" stroke-width="2" mask="url(#path-1-outside-1_211_480)"/>
<path d="M366.776 73.8905L379.607 44.9525H365.957L371.417 5.64045H408.272L402.812 44.9525L389.981 73.8905H366.776Z" stroke="white" stroke-width="2" mask="url(#path-1-outside-1_211_480)"/>
<path d="M410.677 210.39L434.155 42.4955H404.125L409.312 5.64045H506.227L501.04 42.4955H471.01L447.532 210.39H410.677Z" stroke="white" stroke-width="2" mask="url(#path-1-outside-1_211_480)"/>
<path d="M633.509 153.333L631.871 164.253C629.596 179.359 623.272 191.553 612.898 200.835C602.615 210.117 589.738 214.758 574.268 214.758C558.98 214.758 547.378 210.117 539.461 200.835C531.635 191.553 528.768 179.359 530.861 164.253L546.695 51.7775C548.151 41.6765 551.473 32.8495 556.66 25.2965C561.847 17.6525 568.49 11.7375 576.589 7.55146C584.688 3.36546 593.833 1.27246 604.025 1.27246C619.313 1.27246 630.961 5.91346 638.969 15.1955C647.068 24.3865 649.98 36.5805 647.705 51.7775L646.067 62.6975H609.212L610.85 51.7775C611.578 47.4095 610.759 44.0425 608.393 41.6765C606.118 39.3105 602.979 38.1275 598.975 38.1275C594.789 38.1275 591.285 39.4015 588.464 41.9495C585.734 44.4065 584.096 47.6825 583.55 51.7775L567.716 164.253C567.17 168.348 567.853 171.67 569.764 174.218C571.766 176.675 574.951 177.903 579.319 177.903C583.323 177.903 586.781 176.766 589.693 174.491C592.605 172.125 594.379 168.712 595.016 164.253L596.654 153.333H633.509Z" stroke="white" stroke-width="2" mask="url(#path-1-outside-1_211_480)"/>
<path d="M682.327 214.758C667.039 214.758 655.437 210.117 647.52 200.835C639.694 191.553 636.827 179.359 638.92 164.253L654.754 51.7775C656.21 41.6765 659.532 32.8495 664.719 25.2965C669.906 17.6525 676.549 11.7375 684.648 7.55146C692.838 3.36546 701.983 1.27246 712.084 1.27246C727.372 1.27246 738.975 5.91346 746.892 15.1955C754.9 24.3865 757.857 36.5805 755.764 51.7775L739.93 164.253C738.565 174.354 735.244 183.227 729.966 190.871C724.779 198.424 718.09 204.293 709.9 208.479C701.801 212.665 692.61 214.758 682.327 214.758ZM687.378 177.903C691.655 177.903 695.204 176.675 698.025 174.218C700.846 171.67 702.529 168.348 703.075 164.253L718.909 51.7775C719.455 47.6825 718.682 44.4065 716.589 41.9495C714.587 39.4015 711.447 38.1275 707.17 38.1275C702.893 38.1275 699.344 39.4015 696.523 41.9495C693.793 44.4065 692.155 47.6825 691.609 51.7775L675.775 164.253C675.229 168.348 675.912 171.67 677.823 174.218C679.825 176.675 683.01 177.903 687.378 177.903Z" stroke="white" stroke-width="2" mask="url(#path-1-outside-1_211_480)"/>
<path d="M751.435 210.39L780.1 5.64045H807.4L835.519 138.318L825.691 138.591L844.255 5.64045H878.38L849.715 210.39H822.415L794.296 77.7125L804.124 77.4395L785.56 210.39H751.435Z" stroke="white" stroke-width="2" mask="url(#path-1-outside-1_211_480)"/>
<path d="M883.522 210.39L907 42.4955H876.97L882.157 5.64045H979.072L973.885 42.4955H943.855L920.377 210.39H883.522Z" stroke="white" stroke-width="2" mask="url(#path-1-outside-1_211_480)"/>
<path d="M932.517 210.39L999.948 5.64045H1039.81L1049.09 210.39H1011.41L1011.14 178.449H979.473L970.191 210.39H932.517ZM990.12 141.594H1010.87L1010.32 55.3265H1015.24L990.12 141.594Z" stroke="white" stroke-width="2" mask="url(#path-1-outside-1_211_480)"/>
<path d="M1154.88 153.333L1153.24 164.253C1150.96 179.359 1144.64 191.553 1134.26 200.835C1123.98 210.117 1111.1 214.758 1095.63 214.758C1080.35 214.758 1068.74 210.117 1060.83 200.835C1053 191.553 1050.13 179.359 1052.23 164.253L1068.06 51.7775C1069.52 41.6765 1072.84 32.8495 1078.03 25.2965C1083.21 17.6525 1089.86 11.7375 1097.95 7.55146C1106.05 3.36546 1115.2 1.27246 1125.39 1.27246C1140.68 1.27246 1152.33 5.91346 1160.34 15.1955C1168.43 24.3865 1171.35 36.5805 1169.07 51.7775L1167.43 62.6975H1130.58L1132.22 51.7775C1132.94 47.4095 1132.13 44.0425 1129.76 41.6765C1127.48 39.3105 1124.34 38.1275 1120.34 38.1275C1116.15 38.1275 1112.65 39.4015 1109.83 41.9495C1107.1 44.4065 1105.46 47.6825 1104.92 51.7775L1089.08 164.253C1088.54 168.348 1089.22 171.67 1091.13 174.218C1093.13 176.675 1096.32 177.903 1100.68 177.903C1104.69 177.903 1108.15 176.766 1111.06 174.491C1113.97 172.125 1115.75 168.712 1116.38 164.253L1118.02 153.333H1154.88Z" stroke="white" stroke-width="2" mask="url(#path-1-outside-1_211_480)"/>
<path d="M1169.84 210.39L1193.32 42.4955H1163.29L1168.48 5.64045H1265.39L1260.2 42.4955H1230.17L1206.7 210.39H1169.84Z" stroke="white" stroke-width="2" mask="url(#path-1-outside-1_211_480)"/>
<path d="M1415.06 5.64045L1392.95 164.253C1391.49 174.627 1388.12 183.591 1382.85 191.144C1377.57 198.697 1370.83 204.521 1362.64 208.616C1354.54 212.711 1345.44 214.758 1335.34 214.758C1320.51 214.758 1309 210.254 1300.81 201.245C1292.71 192.236 1289.75 179.905 1291.94 164.253L1314.05 5.64045H1350.9L1328.79 164.253C1328.25 168.348 1328.93 171.67 1330.84 174.218C1332.84 176.675 1336.03 177.903 1340.39 177.903C1344.67 177.903 1348.22 176.675 1351.04 174.218C1353.86 171.67 1355.55 168.348 1356.09 164.253L1378.2 5.64045H1415.06Z" stroke="white" stroke-width="2" mask="url(#path-1-outside-1_211_480)"/>
<path d="M1449.28 214.758C1433.9 214.758 1422.2 210.117 1414.2 200.835C1406.28 191.553 1403.46 179.359 1405.73 164.253L1407.37 153.333H1444.23L1442.59 164.253C1442.04 167.893 1442.63 171.078 1444.36 173.808C1446.18 176.538 1449.46 177.903 1454.19 177.903C1458.56 177.903 1462.11 176.675 1464.84 174.218C1467.57 171.67 1469.25 168.348 1469.89 164.253L1472.89 143.232C1473.25 140.866 1473.44 139.001 1473.44 137.636C1473.44 136.271 1473.07 135.179 1472.34 134.36C1471.71 133.541 1470.48 132.813 1468.66 132.176C1466.93 131.448 1464.43 130.583 1461.15 129.582C1448.23 125.487 1438.45 121.984 1431.8 119.072C1425.16 116.069 1420.7 112.975 1418.43 109.79C1416.15 106.514 1415.2 102.51 1415.56 97.778C1415.92 93.046 1416.65 86.8125 1417.74 79.0775L1421.57 51.7775C1423.02 41.6765 1426.3 32.8495 1431.39 25.2965C1436.58 17.7435 1443.22 11.874 1451.32 7.68797C1459.51 3.41096 1468.7 1.27246 1478.9 1.27246C1494.18 1.27246 1505.83 5.91346 1513.84 15.1955C1521.94 24.3865 1524.85 36.5805 1522.58 51.7775L1520.94 62.6975H1484.08L1485.72 51.7775C1486.45 47.4095 1485.68 44.0425 1483.4 41.6765C1481.13 39.3105 1477.99 38.1275 1473.98 38.1275C1469.61 38.1275 1466.07 39.4015 1463.34 41.9495C1460.61 44.4065 1458.97 47.6825 1458.42 51.7775L1454.6 79.0775C1454.24 81.4435 1454.05 83.309 1454.05 84.674C1454.05 86.039 1454.37 87.131 1455.01 87.95C1455.74 88.769 1456.97 89.5425 1458.69 90.2705C1460.51 90.9075 1463.06 91.7265 1466.34 92.7275C1479.35 96.8225 1489.18 100.371 1495.82 103.374C1502.47 106.377 1506.88 109.517 1509.06 112.793C1511.34 116.069 1512.29 120.073 1511.93 124.805C1511.57 129.537 1510.84 135.679 1509.75 143.232L1506.74 164.253C1504.56 179.359 1498.28 191.553 1487.91 200.835C1477.62 210.117 1464.75 214.758 1449.28 214.758Z" stroke="white" stroke-width="2" mask="url(#path-1-outside-1_211_480)"/>
</svg>
