<svg width="355" height="112" viewBox="0 0 355 112" fill="none" xmlns="http://www.w3.org/2000/svg">
<path d="M0.331604 108.826L15.1686 2.84778H32.1251L42.4403 84.9457H37.9186L71.1251 2.84778H88.0817L73.2447 108.826H55.5816L63.0708 54.9891L65.3316 55.413L42.8642 108.826H30.7121L23.2229 55.413L25.4838 54.9891L17.9947 108.826H0.331604Z" fill="url(#paint0_linear_172_184)"/>
<path d="M75.8003 108.826L110.703 2.84778H131.333L136.137 108.826H116.637L116.496 92.2935H100.105L95.3003 108.826H75.8003ZM105.616 73.2174H116.355L116.072 28.5652H118.616L105.616 73.2174Z" fill="url(#paint1_linear_172_184)"/>
<path d="M176.272 108.826L166.805 60.6413L162.424 66.0109L166.805 34.7826L192.522 2.84778H213.011L182.631 40.7174L196.761 108.826H176.272ZM138.827 108.826L153.663 2.84778H172.74L157.903 108.826H138.827Z" fill="url(#paint2_linear_172_184)"/>
<path d="M218.801 108.826H199.725L214.562 2.84778H233.638L218.801 108.826Z" fill="url(#paint3_linear_172_184)"/>
<path d="M229.714 108.826L244.551 2.84778H258.681L273.236 71.5218L268.149 71.6631L277.757 2.84778H295.421L280.584 108.826H266.453L251.899 40.1522L256.986 40.0109L247.377 108.826H229.714Z" fill="url(#paint4_linear_172_184)"/>
<path d="M315.604 111.087C307.691 111.087 301.685 108.685 297.588 103.88C293.537 99.0761 292.053 92.7645 293.136 84.9457L301.332 26.7282C302.086 21.5 303.805 16.9311 306.49 13.0217C309.175 9.06518 312.613 6.00359 316.805 3.83692C320.997 1.67025 325.731 0.586914 331.006 0.586914C338.919 0.586914 344.948 2.98909 349.093 7.79344C353.285 12.5507 354.792 18.8623 353.615 26.7282L352.767 32.3804H333.691L334.539 26.7282C334.915 24.4674 334.492 22.7246 333.267 21.5C332.089 20.2753 330.464 19.663 328.392 19.663C326.225 19.663 324.412 20.3224 322.952 21.6413C321.539 22.913 320.691 24.6087 320.408 26.7282L312.213 84.9457C311.93 87.0652 312.283 88.7844 313.272 90.1033C314.309 91.375 315.957 92.0109 318.218 92.0109C320.432 92.0109 322.269 91.375 323.729 90.1033C325.189 88.7844 326.06 87.0652 326.343 84.9457L327.756 74.9131H318.854L321.539 55.8369H349.517L345.419 84.9457C344.713 90.1739 342.993 94.7663 340.262 98.7229C337.577 102.632 334.115 105.67 329.876 107.837C325.684 110.004 320.926 111.087 315.604 111.087Z" fill="url(#paint5_linear_172_184)"/>
<defs>
<linearGradient id="paint0_linear_172_184" x1="177.167" y1="0.586914" x2="177.167" y2="111.087" gradientUnits="userSpaceOnUse">
<stop stop-color="white"/>
<stop offset="1" stop-color="white" stop-opacity="0.6"/>
</linearGradient>
<linearGradient id="paint1_linear_172_184" x1="177.167" y1="0.586914" x2="177.167" y2="111.087" gradientUnits="userSpaceOnUse">
<stop stop-color="white"/>
<stop offset="1" stop-color="white" stop-opacity="0.6"/>
</linearGradient>
<linearGradient id="paint2_linear_172_184" x1="177.167" y1="0.586914" x2="177.167" y2="111.087" gradientUnits="userSpaceOnUse">
<stop stop-color="white"/>
<stop offset="1" stop-color="white" stop-opacity="0.6"/>
</linearGradient>
<linearGradient id="paint3_linear_172_184" x1="177.167" y1="0.586914" x2="177.167" y2="111.087" gradientUnits="userSpaceOnUse">
<stop stop-color="white"/>
<stop offset="1" stop-color="white" stop-opacity="0.6"/>
</linearGradient>
<linearGradient id="paint4_linear_172_184" x1="177.167" y1="0.586914" x2="177.167" y2="111.087" gradientUnits="userSpaceOnUse">
<stop stop-color="white"/>
<stop offset="1" stop-color="white" stop-opacity="0.6"/>
</linearGradient>
<linearGradient id="paint5_linear_172_184" x1="177.167" y1="0.586914" x2="177.167" y2="111.087" gradientUnits="userSpaceOnUse">
<stop stop-color="white"/>
<stop offset="1" stop-color="white" stop-opacity="0.6"/>
</linearGradient>
</defs>
</svg>
