<svg width="865" height="143" viewBox="0 0 865 143" fill="none" xmlns="http://www.w3.org/2000/svg">
<path d="M29.2731 142.58C19.1233 142.58 11.4203 139.499 6.16409 133.337C0.968333 127.174 -0.934763 119.079 0.4548 109.05L10.9671 34.3757C11.9338 27.6696 14.139 21.8092 17.5827 16.7947C21.0264 11.7198 25.4367 7.79278 30.8137 5.01366C36.2511 2.23453 42.3229 0.844971 49.0291 0.844971C59.1789 0.844971 66.8819 3.92618 72.1381 10.0886C77.4547 16.1906 79.4182 24.2863 78.0286 34.3757L67.5163 109.05C66.6101 115.756 64.4049 121.646 60.9008 126.721C57.4571 131.736 53.0165 135.633 47.5791 138.412C42.2021 141.191 36.1001 142.58 29.2731 142.58ZM32.6262 118.112C35.4657 118.112 37.8219 117.296 39.6948 115.665C41.5677 113.973 42.6854 111.768 43.0479 109.05L53.5602 34.3757C53.9227 31.657 53.4092 29.482 52.0196 27.8508C50.6905 26.1592 48.6062 25.3133 45.7666 25.3133C42.9271 25.3133 40.5709 26.1592 38.698 27.8508C36.8855 29.482 35.798 31.657 35.4355 34.3757L24.9232 109.05C24.5607 111.768 25.0138 113.973 26.2825 115.665C27.6117 117.296 29.7262 118.112 32.6262 118.112Z" fill="url(#paint0_linear_172_185)"/>
<path d="M75.1542 139.68L94.1851 3.74492H127.716C137.624 3.74492 145.267 6.7355 150.644 12.7167C156.021 18.6374 157.984 26.8237 156.534 37.2757L153.997 55.4004C152.547 65.7315 148.287 73.9178 141.219 79.9594C134.211 85.9406 125.722 88.9311 115.754 88.9311H106.691L99.6225 139.68H75.1542ZM110.135 64.4628H119.197C121.976 64.4628 124.302 63.6471 126.175 62.0159C128.048 60.3243 129.166 58.1191 129.528 55.4004L132.066 37.2757C132.428 34.557 131.975 32.382 130.706 30.7508C129.438 29.0591 127.293 28.2133 124.272 28.2133H115.21L110.135 64.4628Z" fill="url(#paint1_linear_172_185)"/>
<path d="M147.603 139.68L166.634 3.74492H200.165C210.073 3.74492 217.716 6.7355 223.093 12.7167C228.47 18.6374 230.434 26.8237 228.984 37.2757L226.446 55.4004C224.996 65.7315 220.737 73.9178 213.668 79.9594C206.66 85.9406 198.171 88.9311 188.203 88.9311H179.141L172.072 139.68H147.603ZM182.584 64.4628H191.647C194.426 64.4628 196.752 63.6471 198.625 62.0159C200.497 60.3243 201.615 58.1191 201.978 55.4004L204.515 37.2757C204.878 34.557 204.425 32.382 203.156 30.7508C201.887 29.0591 199.742 28.2133 196.722 28.2133H187.659L182.584 64.4628Z" fill="url(#paint2_linear_172_185)"/>
<path d="M251.046 142.58C240.896 142.58 233.193 139.499 227.937 133.337C222.741 127.174 220.838 119.079 222.228 109.05L232.74 34.3757C233.707 27.6696 235.912 21.8092 239.356 16.7947C242.799 11.7198 247.21 7.79278 252.587 5.01366C258.024 2.23453 264.096 0.844971 270.802 0.844971C280.952 0.844971 288.655 3.92618 293.911 10.0886C299.228 16.1906 301.191 24.2863 299.802 34.3757L289.289 109.05C288.383 115.756 286.178 121.646 282.674 126.721C279.23 131.736 274.79 135.633 269.352 138.412C263.975 141.191 257.873 142.58 251.046 142.58ZM254.399 118.112C257.239 118.112 259.595 117.296 261.468 115.665C263.341 113.973 264.458 111.768 264.821 109.05L275.333 34.3757C275.696 31.657 275.182 29.482 273.793 27.8508C272.464 26.1592 270.379 25.3133 267.54 25.3133C264.7 25.3133 262.344 26.1592 260.471 27.8508C258.659 29.482 257.571 31.657 257.209 34.3757L246.696 109.05C246.334 111.768 246.787 113.973 248.056 115.665C249.385 117.296 251.499 118.112 254.399 118.112Z" fill="url(#paint3_linear_172_185)"/>
<path d="M296.927 139.68L315.958 3.74492H349.489C359.76 3.74492 367.463 6.85633 372.598 13.0792C377.794 19.302 379.697 27.3675 378.307 37.2757L375.226 59.0253C374.32 65.369 372.266 71.0179 369.064 75.972C365.922 80.8656 361.753 84.8229 356.558 87.8437L355.833 79.8688C360.847 81.9229 364.502 84.7625 366.798 88.3874C369.154 91.9519 369.97 96.3623 369.245 101.618L363.989 139.68H339.52L344.776 101.618C345.139 98.8997 344.656 96.7248 343.327 95.0935C341.997 93.4019 339.883 92.5561 336.983 92.5561H327.92L321.396 139.68H296.927ZM331.364 68.0877H340.427C343.085 68.0877 345.35 67.3023 347.223 65.7315C349.157 64.1003 350.335 61.8649 350.758 59.0253L353.839 37.2757C354.201 34.6174 353.748 32.4424 352.479 30.7508C351.211 29.0591 349.066 28.2133 346.045 28.2133H336.983L331.364 68.0877Z" fill="url(#paint4_linear_172_185)"/>
<path d="M384.267 139.68L399.854 28.2133H379.917L383.361 3.74492H447.704L444.26 28.2133H424.323L408.735 139.68H384.267Z" fill="url(#paint5_linear_172_185)"/>
<path d="M516.215 3.74492L501.534 109.05C500.567 115.937 498.332 121.888 494.828 126.902C491.324 131.917 486.853 135.784 481.416 138.502C476.039 141.221 469.997 142.58 463.291 142.58C453.443 142.58 445.801 139.59 440.363 133.609C434.986 127.627 433.023 119.441 434.473 109.05L449.154 3.74492H473.622L458.941 109.05C458.578 111.768 459.032 113.973 460.3 115.665C461.629 117.296 463.744 118.112 466.644 118.112C469.484 118.112 471.84 117.296 473.713 115.665C475.586 113.973 476.703 111.768 477.066 109.05L491.747 3.74492H516.215Z" fill="url(#paint6_linear_172_185)"/>
<path d="M510.204 139.68L529.235 3.74492H547.36L566.028 91.8311L559.504 92.0123L571.828 3.74492H594.484L575.453 139.68H557.329L538.66 51.5942L545.185 51.413L532.86 139.68H510.204Z" fill="url(#paint7_linear_172_185)"/>
<path d="M613.848 139.68H589.379L608.41 3.74492H632.879L613.848 139.68Z" fill="url(#paint8_linear_172_185)"/>
<path d="M636.364 139.68L651.951 28.2133H632.014L635.457 3.74492H699.8L696.357 28.2133H676.419L660.832 139.68H636.364Z" fill="url(#paint9_linear_172_185)"/>
<path d="M707.594 139.68H683.125L702.156 3.74492H726.625L707.594 139.68Z" fill="url(#paint10_linear_172_185)"/>
<path d="M796.809 3.74492L793.365 28.2133H761.647L757.84 55.4004H784.665L781.221 79.8688H754.397L749.503 115.212H781.221L777.778 139.68H721.591L740.622 3.74492H796.809Z" fill="url(#paint11_linear_172_185)"/>
<path d="M815.157 142.58C804.947 142.58 797.183 139.499 791.867 133.337C786.611 127.174 784.738 119.079 786.248 109.05L787.336 101.8H811.804L810.716 109.05C810.354 111.466 810.747 113.581 811.895 115.393C813.103 117.206 815.278 118.112 818.419 118.112C821.319 118.112 823.676 117.296 825.488 115.665C827.301 113.973 828.418 111.768 828.841 109.05L830.835 95.0935C831.077 93.5227 831.197 92.2842 831.197 91.378C831.197 90.4717 830.956 89.7467 830.472 89.203C830.049 88.6593 829.234 88.1759 828.026 87.753C826.878 87.2697 825.216 86.6958 823.041 86.0312C814.462 83.3125 807.967 80.9865 803.557 79.0532C799.147 77.0594 796.186 75.0053 794.676 72.8908C793.166 70.7158 792.531 68.0575 792.773 64.9159C793.015 61.7743 793.498 57.6358 794.223 52.5004L796.76 34.3757C797.727 27.6696 799.902 21.8092 803.285 16.7947C806.729 11.7802 811.139 7.88341 816.516 5.10429C821.954 2.26474 828.056 0.844971 834.822 0.844971C844.972 0.844971 852.705 3.92618 858.022 10.0886C863.399 16.1906 865.332 24.2863 863.822 34.3757L862.734 41.6256H838.266L839.354 34.3757C839.837 31.4758 839.323 29.2404 837.813 27.6696C836.303 26.0988 834.218 25.3133 831.56 25.3133C828.66 25.3133 826.304 26.1592 824.491 27.8508C822.679 29.482 821.591 31.657 821.229 34.3757L818.691 52.5004C818.45 54.0713 818.329 55.3098 818.329 56.216C818.329 57.1222 818.54 57.8472 818.963 58.391C819.447 58.9347 820.262 59.4482 821.41 59.9316C822.618 60.3545 824.31 60.8982 826.485 61.5628C835.124 64.2815 841.649 66.6377 846.06 68.6314C850.47 70.6252 853.4 72.7095 854.85 74.8845C856.361 77.0594 856.995 79.7177 856.753 82.8594C856.512 86.001 856.028 90.079 855.303 95.0935L853.31 109.05C851.86 119.079 847.691 127.174 840.803 133.337C833.977 139.499 825.428 142.58 815.157 142.58Z" fill="url(#paint12_linear_172_185)"/>
<defs>
<linearGradient id="paint0_linear_172_185" x1="432.167" y1="0.844971" x2="432.167" y2="142.58" gradientUnits="userSpaceOnUse">
<stop stop-color="white"/>
<stop offset="1" stop-color="white" stop-opacity="0.69"/>
</linearGradient>
<linearGradient id="paint1_linear_172_185" x1="432.167" y1="0.844971" x2="432.167" y2="142.58" gradientUnits="userSpaceOnUse">
<stop stop-color="white"/>
<stop offset="1" stop-color="white" stop-opacity="0.69"/>
</linearGradient>
<linearGradient id="paint2_linear_172_185" x1="432.167" y1="0.844971" x2="432.167" y2="142.58" gradientUnits="userSpaceOnUse">
<stop stop-color="white"/>
<stop offset="1" stop-color="white" stop-opacity="0.69"/>
</linearGradient>
<linearGradient id="paint3_linear_172_185" x1="432.167" y1="0.844971" x2="432.167" y2="142.58" gradientUnits="userSpaceOnUse">
<stop stop-color="white"/>
<stop offset="1" stop-color="white" stop-opacity="0.69"/>
</linearGradient>
<linearGradient id="paint4_linear_172_185" x1="432.167" y1="0.844971" x2="432.167" y2="142.58" gradientUnits="userSpaceOnUse">
<stop stop-color="white"/>
<stop offset="1" stop-color="white" stop-opacity="0.69"/>
</linearGradient>
<linearGradient id="paint5_linear_172_185" x1="432.167" y1="0.844971" x2="432.167" y2="142.58" gradientUnits="userSpaceOnUse">
<stop stop-color="white"/>
<stop offset="1" stop-color="white" stop-opacity="0.69"/>
</linearGradient>
<linearGradient id="paint6_linear_172_185" x1="432.167" y1="0.844971" x2="432.167" y2="142.58" gradientUnits="userSpaceOnUse">
<stop stop-color="white"/>
<stop offset="1" stop-color="white" stop-opacity="0.69"/>
</linearGradient>
<linearGradient id="paint7_linear_172_185" x1="432.167" y1="0.844971" x2="432.167" y2="142.58" gradientUnits="userSpaceOnUse">
<stop stop-color="white"/>
<stop offset="1" stop-color="white" stop-opacity="0.69"/>
</linearGradient>
<linearGradient id="paint8_linear_172_185" x1="432.167" y1="0.844971" x2="432.167" y2="142.58" gradientUnits="userSpaceOnUse">
<stop stop-color="white"/>
<stop offset="1" stop-color="white" stop-opacity="0.69"/>
</linearGradient>
<linearGradient id="paint9_linear_172_185" x1="432.167" y1="0.844971" x2="432.167" y2="142.58" gradientUnits="userSpaceOnUse">
<stop stop-color="white"/>
<stop offset="1" stop-color="white" stop-opacity="0.69"/>
</linearGradient>
<linearGradient id="paint10_linear_172_185" x1="432.167" y1="0.844971" x2="432.167" y2="142.58" gradientUnits="userSpaceOnUse">
<stop stop-color="white"/>
<stop offset="1" stop-color="white" stop-opacity="0.69"/>
</linearGradient>
<linearGradient id="paint11_linear_172_185" x1="432.167" y1="0.844971" x2="432.167" y2="142.58" gradientUnits="userSpaceOnUse">
<stop stop-color="white"/>
<stop offset="1" stop-color="white" stop-opacity="0.69"/>
</linearGradient>
<linearGradient id="paint12_linear_172_185" x1="432.167" y1="0.844971" x2="432.167" y2="142.58" gradientUnits="userSpaceOnUse">
<stop stop-color="white"/>
<stop offset="1" stop-color="white" stop-opacity="0.69"/>
</linearGradient>
</defs>
</svg>
