<svg width="466" height="636" viewBox="0 0 466 636" fill="none" xmlns="http://www.w3.org/2000/svg">
<path d="M-57.5998 279.422C24.7687 199.413 106.366 118.647 194.434 44.8404C197.505 42.2667 281.167 -34.5631 234.613 20.4893C178.531 86.8087 121.068 152.032 63.3438 216.921C37.2984 246.2 11.0544 275.301 -14.9855 304.585C-22.6601 313.216 -30.3291 321.852 -37.916 330.559C-43.2839 336.72 -60.558 348.737 -52.5267 350.243C-41.113 352.383 -32.0739 339.152 -22.4937 332.589C-0.0570183 317.219 18.7681 303.181 40.6161 286.728C79.8022 257.217 118.386 226.974 158.313 198.455C170.925 189.446 186.289 178.686 199.304 169.842C204.758 166.136 217.661 154.357 216.958 160.914C215.344 175.978 201.828 187.207 193.216 199.672C157.102 251.943 118.088 302.025 77.9544 351.258C30.5811 409.372 -18.27 466.172 -68.1519 522.121C-109.682 568.702 22.2431 436.036 68.6198 394.278C101.602 364.581 134.669 336.759 171.3 311.89C207.043 287.625 157.291 326.018 152.428 330.154C107.967 367.963 63.6527 406.084 20.5265 445.415C14.2688 451.122 7.48218 456.361 2.06027 462.867C0.587325 464.634 6.43274 461.296 8.35096 460.026C42.1 437.673 74.0178 412.489 107.582 389.814C146.298 363.657 185.868 338.521 226.09 314.731C278.228 283.894 204.772 358.439 201.536 362.013C140.427 429.502 78.273 496.059 16.468 562.909C4.60325 575.742 -8.85168 589.853 -20.0586 603.697C-25.3739 610.263 -34.4119 620.355 -19.044 609.582C46.1553 563.875 104.836 509.278 169.068 462.258C185.646 450.122 195.026 443.11 180.432 463.07C158.121 493.583 131.521 521.26 107.176 550.125C84.8223 576.628 61.8892 603.091 40.6161 630.483C24.8449 650.791 81.6055 599.373 101.088 582.593C170.564 522.752 241.193 464.263 313.348 407.671C331.364 393.541 399.8 336.744 356.571 401.786C337.566 430.382 306.7 471.366 287.171 497.77C276.157 512.66 264.849 527.336 254.094 542.414C250.367 547.638 242.562 552.34 243.745 558.648C244.673 563.602 251.622 552.342 255.311 548.907C264.413 540.431 273.082 531.501 282.097 522.933C303.832 502.277 320.596 487.021 342.975 467.128C379.96 434.253 489.256 335.802 459.86 375.609C446.901 393.157 401.524 439.629 419.275 426.949C429.938 419.333 434.818 406.949 446.467 399.96" stroke="#A9FF1C" stroke-linecap="round"/>
</svg>
