<svg width="390" height="345" viewBox="0 0 390 345" fill="none" xmlns="http://www.w3.org/2000/svg">
<mask id="path-1-outside-1_320_154" maskUnits="userSpaceOnUse" x="-14.4502" y="-1" width="436" height="346" fill="black">
<rect fill="white" x="-14.4502" y="-1" width="436" height="346"/>
<path d="M-12.4502 138.708L6.56329 2.89729H40.0632C49.9623 2.89729 57.5979 5.88512 62.97 11.8608C68.342 17.7761 70.3038 25.9549 68.8551 36.3973L66.32 54.5053C64.8713 64.8269 60.6159 73.0058 53.5538 79.0418C46.552 85.0175 38.0714 88.0053 28.1119 88.0053H19.0579L11.9957 138.708H-12.4502ZM22.4984 63.5594H31.5525C34.329 63.5594 36.6529 62.7445 38.5241 61.1148C40.3952 59.4247 41.5119 57.2215 41.8741 54.5053L44.4092 36.3973C44.7714 33.681 44.3186 31.5081 43.0511 29.8783C41.7835 28.1883 39.6407 27.3432 36.6227 27.3432H27.5687L22.4984 63.5594Z"/>
<path d="M103.392 2.89729L87.8191 114.262H115.887L112.446 138.708H59.9326L78.9461 2.89729H103.392Z"/>
<path d="M191.018 2.89729L187.578 27.3432H155.889L152.086 54.5053H178.886L175.445 78.9512H148.645L143.756 114.262H175.445L172.005 138.708H115.87L134.883 2.89729H191.018Z"/>
<path d="M169.965 138.708L214.692 2.89729H241.129L247.286 138.708H222.297L222.116 117.521H201.111L194.954 138.708H169.965ZM208.173 93.0755H221.935L221.573 35.854H224.832L208.173 93.0755Z"/>
<path d="M279.434 141.605C269.233 141.605 261.477 138.527 256.165 132.37C250.913 126.213 249.042 118.125 250.551 108.105L251.638 100.862H276.084L274.997 108.105C274.635 110.52 275.027 112.632 276.174 114.443C277.382 116.254 279.554 117.159 282.693 117.159C285.59 117.159 287.945 116.344 289.755 114.715C291.566 113.025 292.683 110.821 293.105 108.105L295.097 94.162C295.339 92.5927 295.459 91.3553 295.459 90.4499C295.459 89.5445 295.218 88.8201 294.735 88.2769C294.313 87.7337 293.498 87.2508 292.29 86.8283C291.144 86.3454 289.484 85.772 287.311 85.108C278.74 82.3918 272.251 80.0679 267.845 78.1364C263.438 76.1445 260.481 74.0922 258.972 71.9796C257.463 69.8067 256.829 67.1508 257.07 64.0121C257.312 60.8733 257.795 56.7387 258.519 51.608L261.054 33.5C262.02 26.8 264.193 20.945 267.573 15.9351C271.013 10.9252 275.42 7.03198 280.792 4.2554C286.224 1.41847 292.321 0 299.081 0C309.222 0 316.948 3.07837 322.259 9.23512C327.631 15.3315 329.563 23.4198 328.054 33.5L326.967 40.7432H302.522L303.608 33.5C304.091 30.6027 303.578 28.3693 302.069 26.8C300.56 25.2306 298.477 24.4459 295.822 24.4459C292.924 24.4459 290.57 25.291 288.759 26.981C286.949 28.6108 285.862 30.7837 285.5 33.5L282.965 51.608C282.723 53.1774 282.603 54.4148 282.603 55.3202C282.603 56.2256 282.814 56.9499 283.236 57.4932C283.719 58.0364 284.534 58.5495 285.681 59.0324C286.888 59.4549 288.578 59.9981 290.751 60.6621C299.383 63.3783 305.902 65.7323 310.308 67.7242C314.714 69.7161 317.642 71.7985 319.09 73.9715C320.599 76.1445 321.233 78.8003 320.992 81.9391C320.75 85.0778 320.267 89.1521 319.543 94.162L317.551 108.105C316.103 118.125 311.938 126.213 305.057 132.37C298.236 138.527 289.695 141.605 279.434 141.605Z"/>
<path d="M397.38 2.89729L393.939 27.3432H362.25L358.447 54.5053H385.247L381.807 78.9512H355.007L350.117 114.262H381.807L378.366 138.708H322.231L341.245 2.89729H397.38Z"/>
<path d="M-9.88514 339.332L16.8235 148.556H63.8816C78.5502 148.556 89.4456 152.923 96.568 161.656C103.69 170.389 106.276 181.709 104.326 195.614L90.8447 292.274C89.488 301.94 86.3084 310.292 81.3059 317.329C76.3881 324.367 70.1137 329.793 62.4826 333.609C54.9364 337.424 46.4998 339.332 37.173 339.332H-9.88514ZM29.2876 304.992H42.006C45.9063 304.992 49.1707 303.848 51.7991 301.558C54.4276 299.184 55.9962 296.089 56.505 292.274L69.9865 195.614C70.4952 191.798 69.8169 188.746 67.9515 186.457C66.0862 184.083 63.1185 182.896 59.0487 182.896H46.3302L29.2876 304.992Z"/>
<path d="M143.487 343.402C129.242 343.402 118.432 339.078 111.055 330.429C103.763 321.781 101.092 310.419 103.042 296.344L117.796 191.544C119.152 182.133 122.247 173.908 127.08 166.87C131.913 159.748 138.103 154.237 145.649 150.336C153.28 146.436 161.801 144.486 171.213 144.486C185.458 144.486 196.268 148.81 203.645 157.459C211.107 166.023 213.862 177.384 211.912 191.544L197.159 296.344C195.887 305.755 192.792 314.022 187.874 321.145C183.041 328.182 176.809 333.651 169.178 337.551C161.632 341.452 153.068 343.402 143.487 343.402ZM148.193 309.062C152.178 309.062 155.485 307.918 158.113 305.628C160.742 303.254 162.31 300.159 162.819 296.344L177.572 191.544C178.081 187.729 177.36 184.676 175.41 182.387C173.545 180.013 170.62 178.826 166.634 178.826C162.649 178.826 159.343 180.013 156.714 182.387C154.17 184.676 152.644 187.729 152.135 191.544L137.382 296.344C136.873 300.159 137.509 303.254 139.29 305.628C141.155 307.918 144.123 309.062 148.193 309.062Z"/>
<path d="M207.878 339.332L234.587 148.556H260.023L286.223 272.179L277.066 272.433L294.363 148.556H326.159L299.45 339.332H274.014L247.814 215.709L256.971 215.455L239.674 339.332H207.878Z"/>
<path d="M330.95 339.332L352.826 182.896H324.845L329.678 148.556H419.979L415.146 182.896H387.166L365.29 339.332H330.95Z"/>
</mask>
<path d="M-12.4502 138.708L6.56329 2.89729H40.0632C49.9623 2.89729 57.5979 5.88512 62.97 11.8608C68.342 17.7761 70.3038 25.9549 68.8551 36.3973L66.32 54.5053C64.8713 64.8269 60.6159 73.0058 53.5538 79.0418C46.552 85.0175 38.0714 88.0053 28.1119 88.0053H19.0579L11.9957 138.708H-12.4502ZM22.4984 63.5594H31.5525C34.329 63.5594 36.6529 62.7445 38.5241 61.1148C40.3952 59.4247 41.5119 57.2215 41.8741 54.5053L44.4092 36.3973C44.7714 33.681 44.3186 31.5081 43.0511 29.8783C41.7835 28.1883 39.6407 27.3432 36.6227 27.3432H27.5687L22.4984 63.5594Z" stroke="white" stroke-width="2" mask="url(#path-1-outside-1_320_154)"/>
<path d="M103.392 2.89729L87.8191 114.262H115.887L112.446 138.708H59.9326L78.9461 2.89729H103.392Z" stroke="white" stroke-width="2" mask="url(#path-1-outside-1_320_154)"/>
<path d="M191.018 2.89729L187.578 27.3432H155.889L152.086 54.5053H178.886L175.445 78.9512H148.645L143.756 114.262H175.445L172.005 138.708H115.87L134.883 2.89729H191.018Z" stroke="white" stroke-width="2" mask="url(#path-1-outside-1_320_154)"/>
<path d="M169.965 138.708L214.692 2.89729H241.129L247.286 138.708H222.297L222.116 117.521H201.111L194.954 138.708H169.965ZM208.173 93.0755H221.935L221.573 35.854H224.832L208.173 93.0755Z" stroke="white" stroke-width="2" mask="url(#path-1-outside-1_320_154)"/>
<path d="M279.434 141.605C269.233 141.605 261.477 138.527 256.165 132.37C250.913 126.213 249.042 118.125 250.551 108.105L251.638 100.862H276.084L274.997 108.105C274.635 110.52 275.027 112.632 276.174 114.443C277.382 116.254 279.554 117.159 282.693 117.159C285.59 117.159 287.945 116.344 289.755 114.715C291.566 113.025 292.683 110.821 293.105 108.105L295.097 94.162C295.339 92.5927 295.459 91.3553 295.459 90.4499C295.459 89.5445 295.218 88.8201 294.735 88.2769C294.313 87.7337 293.498 87.2508 292.29 86.8283C291.144 86.3454 289.484 85.772 287.311 85.108C278.74 82.3918 272.251 80.0679 267.845 78.1364C263.438 76.1445 260.481 74.0922 258.972 71.9796C257.463 69.8067 256.829 67.1508 257.07 64.0121C257.312 60.8733 257.795 56.7387 258.519 51.608L261.054 33.5C262.02 26.8 264.193 20.945 267.573 15.9351C271.013 10.9252 275.42 7.03198 280.792 4.2554C286.224 1.41847 292.321 0 299.081 0C309.222 0 316.948 3.07837 322.259 9.23512C327.631 15.3315 329.563 23.4198 328.054 33.5L326.967 40.7432H302.522L303.608 33.5C304.091 30.6027 303.578 28.3693 302.069 26.8C300.56 25.2306 298.477 24.4459 295.822 24.4459C292.924 24.4459 290.57 25.291 288.759 26.981C286.949 28.6108 285.862 30.7837 285.5 33.5L282.965 51.608C282.723 53.1774 282.603 54.4148 282.603 55.3202C282.603 56.2256 282.814 56.9499 283.236 57.4932C283.719 58.0364 284.534 58.5495 285.681 59.0324C286.888 59.4549 288.578 59.9981 290.751 60.6621C299.383 63.3783 305.902 65.7323 310.308 67.7242C314.714 69.7161 317.642 71.7985 319.09 73.9715C320.599 76.1445 321.233 78.8003 320.992 81.9391C320.75 85.0778 320.267 89.1521 319.543 94.162L317.551 108.105C316.103 118.125 311.938 126.213 305.057 132.37C298.236 138.527 289.695 141.605 279.434 141.605Z" stroke="white" stroke-width="2" mask="url(#path-1-outside-1_320_154)"/>
<path d="M397.38 2.89729L393.939 27.3432H362.25L358.447 54.5053H385.247L381.807 78.9512H355.007L350.117 114.262H381.807L378.366 138.708H322.231L341.245 2.89729H397.38Z" stroke="white" stroke-width="2" mask="url(#path-1-outside-1_320_154)"/>
<path d="M-9.88514 339.332L16.8235 148.556H63.8816C78.5502 148.556 89.4456 152.923 96.568 161.656C103.69 170.389 106.276 181.709 104.326 195.614L90.8447 292.274C89.488 301.94 86.3084 310.292 81.3059 317.329C76.3881 324.367 70.1137 329.793 62.4826 333.609C54.9364 337.424 46.4998 339.332 37.173 339.332H-9.88514ZM29.2876 304.992H42.006C45.9063 304.992 49.1707 303.848 51.7991 301.558C54.4276 299.184 55.9962 296.089 56.505 292.274L69.9865 195.614C70.4952 191.798 69.8169 188.746 67.9515 186.457C66.0862 184.083 63.1185 182.896 59.0487 182.896H46.3302L29.2876 304.992Z" stroke="white" stroke-width="2" mask="url(#path-1-outside-1_320_154)"/>
<path d="M143.487 343.402C129.242 343.402 118.432 339.078 111.055 330.429C103.763 321.781 101.092 310.419 103.042 296.344L117.796 191.544C119.152 182.133 122.247 173.908 127.08 166.87C131.913 159.748 138.103 154.237 145.649 150.336C153.28 146.436 161.801 144.486 171.213 144.486C185.458 144.486 196.268 148.81 203.645 157.459C211.107 166.023 213.862 177.384 211.912 191.544L197.159 296.344C195.887 305.755 192.792 314.022 187.874 321.145C183.041 328.182 176.809 333.651 169.178 337.551C161.632 341.452 153.068 343.402 143.487 343.402ZM148.193 309.062C152.178 309.062 155.485 307.918 158.113 305.628C160.742 303.254 162.31 300.159 162.819 296.344L177.572 191.544C178.081 187.729 177.36 184.676 175.41 182.387C173.545 180.013 170.62 178.826 166.634 178.826C162.649 178.826 159.343 180.013 156.714 182.387C154.17 184.676 152.644 187.729 152.135 191.544L137.382 296.344C136.873 300.159 137.509 303.254 139.29 305.628C141.155 307.918 144.123 309.062 148.193 309.062Z" stroke="white" stroke-width="2" mask="url(#path-1-outside-1_320_154)"/>
<path d="M207.878 339.332L234.587 148.556H260.023L286.223 272.179L277.066 272.433L294.363 148.556H326.159L299.45 339.332H274.014L247.814 215.709L256.971 215.455L239.674 339.332H207.878Z" stroke="white" stroke-width="2" mask="url(#path-1-outside-1_320_154)"/>
<path d="M330.95 339.332L352.826 182.896H324.845L329.678 148.556H419.979L415.146 182.896H387.166L365.29 339.332H330.95Z" stroke="white" stroke-width="2" mask="url(#path-1-outside-1_320_154)"/>
</svg>
