<svg width="635" height="191" viewBox="0 0 635 191" fill="none" xmlns="http://www.w3.org/2000/svg">
<path d="M459.651 1.79915L459.82 1.16919H459.168H431.017H430.634L430.534 1.53923L379.909 189.619L379.74 190.249H380.392H408.543H408.926L409.026 189.879L459.651 1.79915ZM522.215 1.79915L522.384 1.16919H521.732H493.581H493.198L493.099 1.53923L442.474 189.619L442.304 190.249H442.956H471.107H471.49L471.59 189.879L522.215 1.79915ZM584.779 1.79915L584.948 1.16919H584.296H556.145H555.762L555.663 1.53923L505.038 189.619L504.868 190.249H505.52H533.671H534.054L534.154 189.879L584.779 1.79915ZM647.343 1.79915L647.512 1.16919H646.86H618.709H618.326L618.227 1.53923L567.602 189.619L567.432 190.249H568.084H596.235H596.618L596.718 189.879L647.343 1.79915Z" stroke="#A9FF1C"/>
<path d="M214.085 1.79915L214.254 1.16919H213.602H185.451H185.068L184.968 1.53923L134.343 189.619L134.174 190.249H134.826H162.977H163.36L163.46 189.879L214.085 1.79915ZM276.649 1.79915L276.818 1.16919H276.166H248.015H247.632L247.532 1.53923L196.907 189.619L196.738 190.249H197.39H225.541H225.924L226.024 189.879L276.649 1.79915ZM339.213 1.79915L339.382 1.16919H338.73H310.579H310.196L310.096 1.53923L259.471 189.619L259.302 190.249H259.954H288.105H288.488L288.588 189.879L339.213 1.79915ZM401.777 1.79915L401.946 1.16919H401.294H373.143H372.76L372.661 1.53923L322.036 189.619L321.866 190.249H322.518H350.669H351.052L351.152 189.879L401.777 1.79915Z" stroke="#A9FF1C"/>
<path d="M-30.1493 1.79915L-29.9798 1.16919H-30.6321H-58.7827H-59.1659L-59.2655 1.53923L-109.891 189.619L-110.06 190.249H-109.408H-81.2571H-80.8739L-80.7743 189.879L-30.1493 1.79915ZM32.4147 1.79915L32.5843 1.16919H31.9319H3.78135H3.39814L3.29853 1.53923L-47.3265 189.619L-47.496 190.249H-46.8436H-18.6931H-18.3099L-18.2103 189.879L32.4147 1.79915ZM94.9788 1.79915L95.1484 1.16919H94.496H66.3454H65.9622L65.8626 1.53923L15.2376 189.619L15.068 190.249H15.7204H43.871H44.2542L44.3538 189.879L94.9788 1.79915ZM157.543 1.79915L157.712 1.16919H157.06H128.909H128.526L128.427 1.53923L77.8017 189.619L77.6321 190.249H78.2845H106.435H106.818L106.918 189.879L157.543 1.79915Z" stroke="#A9FF1C"/>
</svg>
