<svg width="103" height="177" viewBox="0 0 103 177" fill="none" xmlns="http://www.w3.org/2000/svg">
<path d="M21.789 102.323C8.52978 112.668 2.59548 119.364 2.743 128.626C2.81574 133.194 4.37158 138.198 6.76745 144.302C7.93689 147.282 9.37434 150.682 10.9927 154.51C12.6425 158.412 14.4802 162.759 16.4138 167.559C18.0319 171.591 20.6912 174.034 23.9932 173.77C27.0433 173.526 29.462 171.004 30.8199 168.051L38.1117 152.249L65.7335 152.775L73.1736 168.94L21.789 102.323ZM21.789 102.323C21.7124 101.817 21.6169 101.158 21.5101 100.361C21.2411 98.3515 20.9005 95.4575 20.6112 91.9004C20.033 84.791 19.6572 75.0081 20.4738 64.3295C22.0965 43.1098 28.4736 17.7812 48.0018 3.27775C48.9513 2.49701 50.1335 2.05292 51.3635 2.01626L51.4733 2.01299L51.5827 2.02174C52.7949 2.11877 53.9453 2.59502 54.8711 3.3821C74.4622 18.6095 81.0249 44.15 82.8013 65.4521C83.6945 76.1639 83.3889 85.9347 82.8614 93.0244C82.5975 96.5716 82.2776 99.4536 82.0229 101.454C81.9199 102.262 81.8276 102.927 81.7538 103.433C95.118 114.311 101.075 121.208 100.992 130.445C100.95 135.015 99.4267 139.966 97.0718 145.983C95.9045 148.965 94.5072 152.269 92.9432 155.968L92.8709 156.139C91.2743 159.915 89.4983 164.118 87.5891 168.868C85.9799 172.871 83.2899 175.254 79.9582 174.857C76.9456 174.498 74.5444 171.924 73.1743 168.942L21.789 102.323ZM51.6908 62.1326C48.839 62.0632 46.126 60.8877 44.125 58.8546C42.124 56.8215 40.9918 54.09 40.9677 51.2375C40.9583 49.8599 41.2253 48.4944 41.753 47.2218C42.2811 45.9484 43.0595 44.794 44.042 43.827C45.0245 42.86 46.1911 42.1001 47.4728 41.5923C48.7536 41.0849 50.1232 40.8396 51.5005 40.871C54.3523 40.9405 57.0654 42.116 59.0664 44.1491C61.0674 46.1822 62.1995 48.9136 62.2236 51.7661C62.2331 53.1438 61.9661 54.5093 61.4383 55.7819C60.9102 57.0553 60.1319 58.2097 59.1494 59.1767C58.1669 60.1437 57.0002 60.9036 55.7186 61.4113C54.4377 61.9187 53.0681 62.164 51.6908 62.1326Z" fill="black" stroke="black" stroke-width="4"/>
</svg>
