<svg width="1512" height="196" viewBox="0 0 1512 196" fill="none" xmlns="http://www.w3.org/2000/svg">
<mask id="path-1-outside-1_222_93" maskUnits="userSpaceOnUse" x="-8.50671" y="0.656982" width="1552" height="196" fill="black">
<rect fill="white" x="-8.50671" y="0.656982" width="1552" height="196"/>
<path d="M-6.50671 190.859L-3.29571 5.60897H30.7903L25.8503 133.802H21.8983L60.4303 5.60897H87.3533L89.8233 133.802H85.8713L116.993 5.60897H151.079L102.42 190.859H66.3583L60.9243 79.462H66.3583L29.5553 190.859H-6.50671Z"/>
<path d="M132.718 190.859L158.653 5.60897H191.998L178.907 98.234H198.667L211.758 5.60897H245.103L219.168 190.859H185.823L194.221 131.579H174.461L166.063 190.859H132.718Z"/>
<path d="M223.632 190.859L284.641 5.60897H320.703L329.101 190.859H295.015L294.768 161.96H266.116L257.718 190.859H223.632ZM275.749 128.615H294.521L294.027 50.563H298.473L275.749 128.615Z"/>
<path d="M340.586 190.859L361.828 38.954H334.658L339.351 5.60897H427.036L422.343 38.954H395.173L373.931 190.859H340.586Z"/>
<path d="M431.787 190.859L492.796 5.60897H528.858L537.256 190.859H503.17L502.923 161.96H474.271L465.873 190.859H431.787ZM483.904 128.615H502.676L502.182 50.563H506.628L483.904 128.615Z"/>
<path d="M541.957 190.859L567.892 5.60897H613.587C627.583 5.60897 638.081 9.84914 645.079 18.3295C652.16 26.8098 654.753 37.8013 652.86 51.304L648.661 80.944C647.426 89.589 644.626 97.2872 640.263 104.038C635.981 110.707 630.3 116.1 623.22 120.217L622.232 109.349C629.065 112.148 634.047 116.018 637.175 120.958C640.386 125.816 641.498 131.826 640.51 138.989L633.347 190.859H600.002L607.165 138.989C607.659 135.284 607 132.32 605.189 130.097C603.377 127.792 600.496 126.639 596.544 126.639H584.194L575.302 190.859H541.957ZM588.887 93.294H601.237C604.859 93.294 607.947 92.2237 610.499 90.083C613.134 87.86 614.739 84.8137 615.316 80.944L619.515 51.304C620.009 47.6813 619.391 44.7173 617.662 42.412C615.933 40.1067 613.01 38.954 608.894 38.954H596.544L588.887 93.294Z"/>
<path d="M751.878 5.60897L747.185 38.954H703.96L698.773 76.004H735.329L730.636 109.349H694.08L687.411 157.514H730.636L725.943 190.859H649.373L675.308 5.60897H751.878Z"/>
<path d="M791.39 190.859L794.601 5.60897H828.687L823.747 133.802H819.795L858.327 5.60897H885.25L887.72 133.802H883.768L914.89 5.60897H948.976L900.317 190.859H864.255L858.821 79.462H864.255L827.452 190.859H791.39Z"/>
<path d="M1033.12 5.60897L1028.43 38.954H985.202L980.015 76.004H1016.57L1011.88 109.349H975.322L968.653 157.514H1011.88L1007.19 190.859H930.615L956.55 5.60897H1033.12Z"/>
<path d="M1061.02 190.859L1086.96 5.60897H1132.65C1146.9 5.60897 1157.48 9.84914 1164.39 18.3295C1171.31 26.8098 1173.82 37.8013 1171.93 51.304L1158.84 145.164C1157.52 154.55 1154.43 162.66 1149.57 169.493C1144.8 176.327 1138.7 181.596 1131.29 185.301C1123.97 189.007 1115.78 190.859 1106.72 190.859H1061.02ZM1099.06 157.514H1111.41C1115.2 157.514 1118.37 156.402 1120.92 154.179C1123.47 151.874 1125 148.869 1125.49 145.164L1138.58 51.304C1139.08 47.599 1138.42 44.635 1136.61 42.412C1134.79 40.1067 1131.91 38.954 1127.96 38.954H1115.61L1099.06 157.514Z"/>
<path d="M1209.95 194.811C1196.12 194.811 1185.62 190.612 1178.46 182.214C1171.38 173.816 1168.79 162.783 1170.68 149.116L1185.01 47.352C1186.32 38.213 1189.33 30.2267 1194.02 23.393C1198.71 16.477 1204.72 11.1253 1212.05 7.33798C1219.46 3.55065 1227.74 1.65698 1236.88 1.65698C1250.71 1.65698 1261.21 5.85598 1268.37 14.254C1275.61 22.5696 1278.29 33.6023 1276.4 47.352L1262.07 149.116C1260.83 158.255 1257.83 166.282 1253.05 173.198C1248.36 180.032 1242.31 185.343 1234.9 189.13C1227.57 192.917 1219.26 194.811 1209.95 194.811ZM1214.52 161.466C1218.39 161.466 1221.6 160.354 1224.16 158.131C1226.71 155.826 1228.23 152.821 1228.72 149.116L1243.05 47.352C1243.54 43.647 1242.84 40.683 1240.95 38.46C1239.14 36.1546 1236.3 35.002 1232.43 35.002C1228.56 35.002 1225.35 36.1546 1222.8 38.46C1220.33 40.683 1218.84 43.647 1218.35 47.352L1204.02 149.116C1203.53 152.821 1204.15 155.826 1205.88 158.131C1207.69 160.354 1210.57 161.466 1214.52 161.466Z"/>
<path d="M1305.82 190.859H1272.48L1298.41 5.60897H1331.76L1305.82 190.859Z"/>
<path d="M1324.9 190.859L1350.83 5.60897H1375.53L1400.97 125.651L1392.08 125.898L1408.88 5.60897H1439.75L1413.82 190.859H1389.12L1363.68 70.817L1372.57 70.57L1355.77 190.859H1324.9Z"/>
<path d="M1475.03 194.811C1461.2 194.811 1450.7 190.612 1443.54 182.214C1436.46 173.816 1433.87 162.783 1435.76 149.116L1450.09 47.352C1451.4 38.213 1454.41 30.2267 1459.1 23.393C1463.8 16.477 1469.81 11.1253 1477.13 7.33798C1484.46 3.55065 1492.74 1.65698 1501.96 1.65698C1515.79 1.65698 1526.33 5.85598 1533.57 14.254C1540.9 22.5696 1543.54 33.6023 1541.48 47.352L1539.99 57.232H1506.65L1508.13 47.352C1508.79 43.4 1508.05 40.3536 1505.91 38.213C1503.85 36.0723 1501.01 35.002 1497.39 35.002C1493.6 35.002 1490.43 36.1546 1487.88 38.46C1485.41 40.683 1483.93 43.647 1483.43 47.352L1469.11 149.116C1468.61 152.821 1469.23 155.826 1470.96 158.131C1472.77 160.354 1475.65 161.466 1479.6 161.466C1483.47 161.466 1486.68 160.354 1489.24 158.131C1491.79 155.826 1493.31 152.821 1493.81 149.116L1496.28 131.579H1480.71L1485.41 98.234H1534.31L1527.15 149.116C1525.92 158.255 1522.91 166.282 1518.14 173.198C1513.44 180.032 1507.39 185.343 1499.98 189.13C1492.65 192.917 1484.34 194.811 1475.03 194.811Z"/>
</mask>
<path d="M-6.50671 190.859L-3.29571 5.60897H30.7903L25.8503 133.802H21.8983L60.4303 5.60897H87.3533L89.8233 133.802H85.8713L116.993 5.60897H151.079L102.42 190.859H66.3583L60.9243 79.462H66.3583L29.5553 190.859H-6.50671Z" stroke="white" stroke-width="2" mask="url(#path-1-outside-1_222_93)"/>
<path d="M132.718 190.859L158.653 5.60897H191.998L178.907 98.234H198.667L211.758 5.60897H245.103L219.168 190.859H185.823L194.221 131.579H174.461L166.063 190.859H132.718Z" stroke="white" stroke-width="2" mask="url(#path-1-outside-1_222_93)"/>
<path d="M223.632 190.859L284.641 5.60897H320.703L329.101 190.859H295.015L294.768 161.96H266.116L257.718 190.859H223.632ZM275.749 128.615H294.521L294.027 50.563H298.473L275.749 128.615Z" stroke="white" stroke-width="2" mask="url(#path-1-outside-1_222_93)"/>
<path d="M340.586 190.859L361.828 38.954H334.658L339.351 5.60897H427.036L422.343 38.954H395.173L373.931 190.859H340.586Z" stroke="white" stroke-width="2" mask="url(#path-1-outside-1_222_93)"/>
<path d="M431.787 190.859L492.796 5.60897H528.858L537.256 190.859H503.17L502.923 161.96H474.271L465.873 190.859H431.787ZM483.904 128.615H502.676L502.182 50.563H506.628L483.904 128.615Z" stroke="white" stroke-width="2" mask="url(#path-1-outside-1_222_93)"/>
<path d="M541.957 190.859L567.892 5.60897H613.587C627.583 5.60897 638.081 9.84914 645.079 18.3295C652.16 26.8098 654.753 37.8013 652.86 51.304L648.661 80.944C647.426 89.589 644.626 97.2872 640.263 104.038C635.981 110.707 630.3 116.1 623.22 120.217L622.232 109.349C629.065 112.148 634.047 116.018 637.175 120.958C640.386 125.816 641.498 131.826 640.51 138.989L633.347 190.859H600.002L607.165 138.989C607.659 135.284 607 132.32 605.189 130.097C603.377 127.792 600.496 126.639 596.544 126.639H584.194L575.302 190.859H541.957ZM588.887 93.294H601.237C604.859 93.294 607.947 92.2237 610.499 90.083C613.134 87.86 614.739 84.8137 615.316 80.944L619.515 51.304C620.009 47.6813 619.391 44.7173 617.662 42.412C615.933 40.1067 613.01 38.954 608.894 38.954H596.544L588.887 93.294Z" stroke="white" stroke-width="2" mask="url(#path-1-outside-1_222_93)"/>
<path d="M751.878 5.60897L747.185 38.954H703.96L698.773 76.004H735.329L730.636 109.349H694.08L687.411 157.514H730.636L725.943 190.859H649.373L675.308 5.60897H751.878Z" stroke="white" stroke-width="2" mask="url(#path-1-outside-1_222_93)"/>
<path d="M791.39 190.859L794.601 5.60897H828.687L823.747 133.802H819.795L858.327 5.60897H885.25L887.72 133.802H883.768L914.89 5.60897H948.976L900.317 190.859H864.255L858.821 79.462H864.255L827.452 190.859H791.39Z" stroke="white" stroke-width="2" mask="url(#path-1-outside-1_222_93)"/>
<path d="M1033.12 5.60897L1028.43 38.954H985.202L980.015 76.004H1016.57L1011.88 109.349H975.322L968.653 157.514H1011.88L1007.19 190.859H930.615L956.55 5.60897H1033.12Z" stroke="white" stroke-width="2" mask="url(#path-1-outside-1_222_93)"/>
<path d="M1061.02 190.859L1086.96 5.60897H1132.65C1146.9 5.60897 1157.48 9.84914 1164.39 18.3295C1171.31 26.8098 1173.82 37.8013 1171.93 51.304L1158.84 145.164C1157.52 154.55 1154.43 162.66 1149.57 169.493C1144.8 176.327 1138.7 181.596 1131.29 185.301C1123.97 189.007 1115.78 190.859 1106.72 190.859H1061.02ZM1099.06 157.514H1111.41C1115.2 157.514 1118.37 156.402 1120.92 154.179C1123.47 151.874 1125 148.869 1125.49 145.164L1138.58 51.304C1139.08 47.599 1138.42 44.635 1136.61 42.412C1134.79 40.1067 1131.91 38.954 1127.96 38.954H1115.61L1099.06 157.514Z" stroke="white" stroke-width="2" mask="url(#path-1-outside-1_222_93)"/>
<path d="M1209.95 194.811C1196.12 194.811 1185.62 190.612 1178.46 182.214C1171.38 173.816 1168.79 162.783 1170.68 149.116L1185.01 47.352C1186.32 38.213 1189.33 30.2267 1194.02 23.393C1198.71 16.477 1204.72 11.1253 1212.05 7.33798C1219.46 3.55065 1227.74 1.65698 1236.88 1.65698C1250.71 1.65698 1261.21 5.85598 1268.37 14.254C1275.61 22.5696 1278.29 33.6023 1276.4 47.352L1262.07 149.116C1260.83 158.255 1257.83 166.282 1253.05 173.198C1248.36 180.032 1242.31 185.343 1234.9 189.13C1227.57 192.917 1219.26 194.811 1209.95 194.811ZM1214.52 161.466C1218.39 161.466 1221.6 160.354 1224.16 158.131C1226.71 155.826 1228.23 152.821 1228.72 149.116L1243.05 47.352C1243.54 43.647 1242.84 40.683 1240.95 38.46C1239.14 36.1546 1236.3 35.002 1232.43 35.002C1228.56 35.002 1225.35 36.1546 1222.8 38.46C1220.33 40.683 1218.84 43.647 1218.35 47.352L1204.02 149.116C1203.53 152.821 1204.15 155.826 1205.88 158.131C1207.69 160.354 1210.57 161.466 1214.52 161.466Z" stroke="white" stroke-width="2" mask="url(#path-1-outside-1_222_93)"/>
<path d="M1305.82 190.859H1272.48L1298.41 5.60897H1331.76L1305.82 190.859Z" stroke="white" stroke-width="2" mask="url(#path-1-outside-1_222_93)"/>
<path d="M1324.9 190.859L1350.83 5.60897H1375.53L1400.97 125.651L1392.08 125.898L1408.88 5.60897H1439.75L1413.82 190.859H1389.12L1363.68 70.817L1372.57 70.57L1355.77 190.859H1324.9Z" stroke="white" stroke-width="2" mask="url(#path-1-outside-1_222_93)"/>
<path d="M1475.03 194.811C1461.2 194.811 1450.7 190.612 1443.54 182.214C1436.46 173.816 1433.87 162.783 1435.76 149.116L1450.09 47.352C1451.4 38.213 1454.41 30.2267 1459.1 23.393C1463.8 16.477 1469.81 11.1253 1477.13 7.33798C1484.46 3.55065 1492.74 1.65698 1501.96 1.65698C1515.79 1.65698 1526.33 5.85598 1533.57 14.254C1540.9 22.5696 1543.54 33.6023 1541.48 47.352L1539.99 57.232H1506.65L1508.13 47.352C1508.79 43.4 1508.05 40.3536 1505.91 38.213C1503.85 36.0723 1501.01 35.002 1497.39 35.002C1493.6 35.002 1490.43 36.1546 1487.88 38.46C1485.41 40.683 1483.93 43.647 1483.43 47.352L1469.11 149.116C1468.61 152.821 1469.23 155.826 1470.96 158.131C1472.77 160.354 1475.65 161.466 1479.6 161.466C1483.47 161.466 1486.68 160.354 1489.24 158.131C1491.79 155.826 1493.31 152.821 1493.81 149.116L1496.28 131.579H1480.71L1485.41 98.234H1534.31L1527.15 149.116C1525.92 158.255 1522.91 166.282 1518.14 173.198C1513.44 180.032 1507.39 185.343 1499.98 189.13C1492.65 192.917 1484.34 194.811 1475.03 194.811Z" stroke="white" stroke-width="2" mask="url(#path-1-outside-1_222_93)"/>
</svg>
