<svg width="390" height="205" viewBox="0 0 390 205" fill="none" xmlns="http://www.w3.org/2000/svg">
<mask id="path-1-outside-1_469_19" maskUnits="userSpaceOnUse" x="-9.89551" y="0.998779" width="409" height="204" fill="black">
<rect fill="white" x="-9.89551" y="0.998779" width="409" height="204"/>
<path d="M21.2314 86.8914L22.7029 1.99878H38.3232L36.0594 60.7445H34.2483L51.906 1.99878H64.2437L65.3756 60.7445H63.5646L77.8265 1.99878H93.4468L71.1483 86.8914H54.6225L52.1324 35.8426H54.6225L37.7572 86.8914H21.2314Z"/>
<path d="M85.0327 86.8914L96.9176 1.99878H112.198L106.199 44.4451H115.254L121.254 1.99878H136.534L124.649 86.8914H109.369L113.217 59.7258H104.162L100.313 86.8914H85.0327Z"/>
<path d="M126.695 86.8914L154.653 1.99878H171.178L175.027 86.8914H159.407L159.293 73.6482H146.163L142.315 86.8914H126.695ZM150.578 58.3675H159.18L158.954 22.5994H160.991L150.578 58.3675Z"/>
<path d="M180.29 86.8914L190.025 17.2795H177.574L179.724 1.99878H219.907L217.756 17.2795H205.305L195.571 86.8914H180.29Z"/>
<path d="M222.084 86.8914L250.042 1.99878H266.568L270.416 86.8914H254.796L254.683 73.6482H241.553L237.704 86.8914H222.084ZM245.967 58.3675H254.569L254.343 22.5994H256.38L245.967 58.3675Z"/>
<path d="M272.57 86.8914L284.455 1.99878H305.395C311.809 1.99878 316.62 3.94188 319.827 7.82807C323.072 11.7143 324.26 16.7512 323.393 22.939L321.468 36.5218C320.902 40.4834 319.62 44.0112 317.62 47.1051C315.658 50.1612 313.055 52.6325 309.81 54.519L309.357 49.5387C312.489 50.8215 314.771 52.5948 316.205 54.8586C317.676 57.0847 318.186 59.839 317.733 63.1215L314.451 86.8914H299.17L302.452 63.1215C302.679 61.4236 302.377 60.0653 301.547 59.0466C300.717 57.9902 299.396 57.462 297.585 57.462H291.926L287.851 86.8914H272.57ZM294.076 42.1813H299.736C301.396 42.1813 302.811 41.6908 303.98 40.7098C305.188 39.6911 305.924 38.2951 306.188 36.5218L308.112 22.939C308.338 21.2788 308.055 19.9206 307.263 18.8641C306.471 17.8077 305.131 17.2795 303.245 17.2795H297.585L294.076 42.1813Z"/>
<path d="M368.769 1.99878L366.618 17.2795H346.81L344.433 34.258H361.185L359.034 49.5387H342.282L339.226 71.6107H359.034L356.884 86.8914H321.795L333.68 1.99878H368.769Z"/>
<path d="M-7.89551 201.128L-6.15996 101H12.2637L9.59359 170.289H7.45749L28.2842 101H42.8362L44.1712 170.289H42.0352L58.8568 101H77.2804L50.98 201.128H31.4883L28.5512 140.918H31.4883L11.5961 201.128H-7.89551Z"/>
<path d="M122.761 101L120.224 119.023H96.8607L94.0571 139.049H113.816L111.279 157.072H91.5205L87.9159 183.105H111.279L108.743 201.128H67.3562L81.3742 101H122.761Z"/>
<path d="M137.842 201.128L151.86 101H176.559C184.258 101 189.976 103.292 193.714 107.875C197.452 112.459 198.81 118.4 197.786 125.698L190.71 176.43C189.998 181.503 188.329 185.887 185.704 189.58C183.123 193.274 179.83 196.122 175.824 198.124C171.864 200.127 167.436 201.128 162.541 201.128H137.842ZM158.402 183.105H165.077C167.124 183.105 168.838 182.504 170.217 181.303C171.597 180.057 172.42 178.433 172.687 176.43L179.763 125.698C180.03 123.696 179.674 122.094 178.695 120.892C177.716 119.646 176.158 119.023 174.022 119.023H167.347L158.402 183.105Z"/>
<path d="M218.339 203.264C210.863 203.264 205.189 200.995 201.318 196.456C197.49 191.916 196.089 185.953 197.112 178.566L204.855 123.562C205.567 118.622 207.192 114.306 209.728 110.612C212.265 106.874 215.514 103.981 219.474 101.934C223.479 99.8873 227.952 98.8638 232.891 98.8638C240.368 98.8638 246.042 101.133 249.913 105.673C253.829 110.167 255.276 116.13 254.252 123.562L246.509 178.566C245.841 183.506 244.217 187.845 241.636 191.583C239.099 195.276 235.829 198.147 231.823 200.194C227.863 202.241 223.368 203.264 218.339 203.264ZM220.809 185.241C222.901 185.241 224.636 184.64 226.016 183.439C227.396 182.193 228.219 180.569 228.486 178.566L236.229 123.562C236.496 121.56 236.118 119.957 235.094 118.756C234.115 117.51 232.58 116.887 230.488 116.887C228.397 116.887 226.661 117.51 225.282 118.756C223.947 119.957 223.146 121.56 222.879 123.562L215.135 178.566C214.868 180.569 215.202 182.193 216.137 183.439C217.116 184.64 218.673 185.241 220.809 185.241Z"/>
<path d="M270.158 201.128H252.135L266.153 101H284.176L270.158 201.128Z"/>
<path d="M280.468 201.128L294.486 101H307.837L321.588 165.883L316.781 166.017L325.86 101H342.548L328.53 201.128H315.179L301.428 136.245L306.235 136.112L297.156 201.128H280.468Z"/>
<path d="M361.617 203.264C354.141 203.264 348.467 200.995 344.595 196.456C340.768 191.916 339.366 185.953 340.39 178.566L348.133 123.562C348.845 118.622 350.469 114.306 353.006 110.612C355.543 106.874 358.791 103.981 362.752 101.934C366.712 99.8873 371.185 98.8638 376.169 98.8638C383.645 98.8638 389.341 101.133 393.258 105.673C397.218 110.167 398.642 116.13 397.53 123.562L396.729 128.902H378.706L379.507 123.562C379.863 121.426 379.462 119.779 378.305 118.622C377.192 117.465 375.657 116.887 373.699 116.887C371.652 116.887 369.939 117.51 368.559 118.756C367.224 119.957 366.423 121.56 366.156 123.562L358.413 178.566C358.146 180.569 358.48 182.193 359.414 183.439C360.393 184.64 361.951 185.241 364.087 185.241C366.178 185.241 367.914 184.64 369.293 183.439C370.673 182.193 371.496 180.569 371.763 178.566L373.098 169.087H364.688L367.224 151.064H393.658L389.786 178.566C389.119 183.506 387.495 187.845 384.914 191.583C382.377 195.276 379.106 198.147 375.101 200.194C371.14 202.241 366.646 203.264 361.617 203.264Z"/>
</mask>
<path d="M21.2314 86.8914L22.7029 1.99878H38.3232L36.0594 60.7445H34.2483L51.906 1.99878H64.2437L65.3756 60.7445H63.5646L77.8265 1.99878H93.4468L71.1483 86.8914H54.6225L52.1324 35.8426H54.6225L37.7572 86.8914H21.2314Z" stroke="white" stroke-width="2" mask="url(#path-1-outside-1_469_19)"/>
<path d="M85.0327 86.8914L96.9176 1.99878H112.198L106.199 44.4451H115.254L121.254 1.99878H136.534L124.649 86.8914H109.369L113.217 59.7258H104.162L100.313 86.8914H85.0327Z" stroke="white" stroke-width="2" mask="url(#path-1-outside-1_469_19)"/>
<path d="M126.695 86.8914L154.653 1.99878H171.178L175.027 86.8914H159.407L159.293 73.6482H146.163L142.315 86.8914H126.695ZM150.578 58.3675H159.18L158.954 22.5994H160.991L150.578 58.3675Z" stroke="white" stroke-width="2" mask="url(#path-1-outside-1_469_19)"/>
<path d="M180.29 86.8914L190.025 17.2795H177.574L179.724 1.99878H219.907L217.756 17.2795H205.305L195.571 86.8914H180.29Z" stroke="white" stroke-width="2" mask="url(#path-1-outside-1_469_19)"/>
<path d="M222.084 86.8914L250.042 1.99878H266.568L270.416 86.8914H254.796L254.683 73.6482H241.553L237.704 86.8914H222.084ZM245.967 58.3675H254.569L254.343 22.5994H256.38L245.967 58.3675Z" stroke="white" stroke-width="2" mask="url(#path-1-outside-1_469_19)"/>
<path d="M272.57 86.8914L284.455 1.99878H305.395C311.809 1.99878 316.62 3.94188 319.827 7.82807C323.072 11.7143 324.26 16.7512 323.393 22.939L321.468 36.5218C320.902 40.4834 319.62 44.0112 317.62 47.1051C315.658 50.1612 313.055 52.6325 309.81 54.519L309.357 49.5387C312.489 50.8215 314.771 52.5948 316.205 54.8586C317.676 57.0847 318.186 59.839 317.733 63.1215L314.451 86.8914H299.17L302.452 63.1215C302.679 61.4236 302.377 60.0653 301.547 59.0466C300.717 57.9902 299.396 57.462 297.585 57.462H291.926L287.851 86.8914H272.57ZM294.076 42.1813H299.736C301.396 42.1813 302.811 41.6908 303.98 40.7098C305.188 39.6911 305.924 38.2951 306.188 36.5218L308.112 22.939C308.338 21.2788 308.055 19.9206 307.263 18.8641C306.471 17.8077 305.131 17.2795 303.245 17.2795H297.585L294.076 42.1813Z" stroke="white" stroke-width="2" mask="url(#path-1-outside-1_469_19)"/>
<path d="M368.769 1.99878L366.618 17.2795H346.81L344.433 34.258H361.185L359.034 49.5387H342.282L339.226 71.6107H359.034L356.884 86.8914H321.795L333.68 1.99878H368.769Z" stroke="white" stroke-width="2" mask="url(#path-1-outside-1_469_19)"/>
<path d="M-7.89551 201.128L-6.15996 101H12.2637L9.59359 170.289H7.45749L28.2842 101H42.8362L44.1712 170.289H42.0352L58.8568 101H77.2804L50.98 201.128H31.4883L28.5512 140.918H31.4883L11.5961 201.128H-7.89551Z" stroke="white" stroke-width="2" mask="url(#path-1-outside-1_469_19)"/>
<path d="M122.761 101L120.224 119.023H96.8607L94.0571 139.049H113.816L111.279 157.072H91.5205L87.9159 183.105H111.279L108.743 201.128H67.3562L81.3742 101H122.761Z" stroke="white" stroke-width="2" mask="url(#path-1-outside-1_469_19)"/>
<path d="M137.842 201.128L151.86 101H176.559C184.258 101 189.976 103.292 193.714 107.875C197.452 112.459 198.81 118.4 197.786 125.698L190.71 176.43C189.998 181.503 188.329 185.887 185.704 189.58C183.123 193.274 179.83 196.122 175.824 198.124C171.864 200.127 167.436 201.128 162.541 201.128H137.842ZM158.402 183.105H165.077C167.124 183.105 168.838 182.504 170.217 181.303C171.597 180.057 172.42 178.433 172.687 176.43L179.763 125.698C180.03 123.696 179.674 122.094 178.695 120.892C177.716 119.646 176.158 119.023 174.022 119.023H167.347L158.402 183.105Z" stroke="white" stroke-width="2" mask="url(#path-1-outside-1_469_19)"/>
<path d="M218.339 203.264C210.863 203.264 205.189 200.995 201.318 196.456C197.49 191.916 196.089 185.953 197.112 178.566L204.855 123.562C205.567 118.622 207.192 114.306 209.728 110.612C212.265 106.874 215.514 103.981 219.474 101.934C223.479 99.8873 227.952 98.8638 232.891 98.8638C240.368 98.8638 246.042 101.133 249.913 105.673C253.829 110.167 255.276 116.13 254.252 123.562L246.509 178.566C245.841 183.506 244.217 187.845 241.636 191.583C239.099 195.276 235.829 198.147 231.823 200.194C227.863 202.241 223.368 203.264 218.339 203.264ZM220.809 185.241C222.901 185.241 224.636 184.64 226.016 183.439C227.396 182.193 228.219 180.569 228.486 178.566L236.229 123.562C236.496 121.56 236.118 119.957 235.094 118.756C234.115 117.51 232.58 116.887 230.488 116.887C228.397 116.887 226.661 117.51 225.282 118.756C223.947 119.957 223.146 121.56 222.879 123.562L215.135 178.566C214.868 180.569 215.202 182.193 216.137 183.439C217.116 184.64 218.673 185.241 220.809 185.241Z" stroke="white" stroke-width="2" mask="url(#path-1-outside-1_469_19)"/>
<path d="M270.158 201.128H252.135L266.153 101H284.176L270.158 201.128Z" stroke="white" stroke-width="2" mask="url(#path-1-outside-1_469_19)"/>
<path d="M280.468 201.128L294.486 101H307.837L321.588 165.883L316.781 166.017L325.86 101H342.548L328.53 201.128H315.179L301.428 136.245L306.235 136.112L297.156 201.128H280.468Z" stroke="white" stroke-width="2" mask="url(#path-1-outside-1_469_19)"/>
<path d="M361.617 203.264C354.141 203.264 348.467 200.995 344.595 196.456C340.768 191.916 339.366 185.953 340.39 178.566L348.133 123.562C348.845 118.622 350.469 114.306 353.006 110.612C355.543 106.874 358.791 103.981 362.752 101.934C366.712 99.8873 371.185 98.8638 376.169 98.8638C383.645 98.8638 389.341 101.133 393.258 105.673C397.218 110.167 398.642 116.13 397.53 123.562L396.729 128.902H378.706L379.507 123.562C379.863 121.426 379.462 119.779 378.305 118.622C377.192 117.465 375.657 116.887 373.699 116.887C371.652 116.887 369.939 117.51 368.559 118.756C367.224 119.957 366.423 121.56 366.156 123.562L358.413 178.566C358.146 180.569 358.48 182.193 359.414 183.439C360.393 184.64 361.951 185.241 364.087 185.241C366.178 185.241 367.914 184.64 369.293 183.439C370.673 182.193 371.496 180.569 371.763 178.566L373.098 169.087H364.688L367.224 151.064H393.658L389.786 178.566C389.119 183.506 387.495 187.845 384.914 191.583C382.377 195.276 379.106 198.147 375.101 200.194C371.14 202.241 366.646 203.264 361.617 203.264Z" stroke="white" stroke-width="2" mask="url(#path-1-outside-1_469_19)"/>
</svg>
