<svg width="1419" height="982" fill="none"
    xmlns="http://www.w3.org/2000/svg">
    <mask id="a" maskUnits="userSpaceOnUse" x="-.428" y="-62.783" width="1420" height="1127" fill="#000">
        <path fill="#fff" d="M-.428-62.783h1420v1127h-1420z"/>
        <path d="m1.572 392.455 62.265-444.75h109.705c32.417 0 57.422 9.785 75.014 29.354 17.592 19.37 24.017 46.155 19.273 80.351l-8.302 59.3c-4.744 33.801-18.68 60.585-41.807 80.352-22.929 19.569-50.701 29.353-83.316 29.353h-29.65l-23.127 166.04H1.572ZM116.02 146.36h29.65c9.092 0 16.703-2.668 22.83-8.005 6.128-5.535 9.785-12.75 10.971-21.645l8.302-59.3c1.186-8.895-.297-16.011-4.448-21.348-4.151-5.535-11.168-8.302-21.051-8.302h-29.65l-16.604 118.6ZM380.93-52.295 329.932 312.4h91.915l-11.267 80.055H238.609l62.266-444.75h80.055ZM667.886-52.295 656.619 27.76H552.844l-12.453 88.95h87.764l-11.267 80.055h-87.764L513.113 312.4h103.775l-11.267 80.055h-183.83l62.265-444.75h183.83Z"/>
        <path d="m598.94 392.455 146.471-444.75h86.578l20.162 444.75h-81.834l-.593-69.381h-68.788l-20.162 69.381H598.94Zm125.123-149.436h45.068l-1.186-187.388h10.674l-54.556 187.388ZM957.427 401.943c-33.405 0-58.805-10.081-76.2-30.243-17.197-20.162-23.325-46.649-18.383-79.462l3.558-23.72h80.055l-3.558 23.72c-1.186 7.907.099 14.825 3.854 20.755 3.954 5.93 11.07 8.895 21.348 8.895 9.488 0 17.197-2.668 23.127-8.005 5.93-5.535 9.592-12.75 10.972-21.645l6.52-45.661c.79-5.139 1.19-9.191 1.19-12.156s-.79-5.337-2.37-7.116c-1.39-1.779-4.06-3.361-8.01-4.744-3.755-1.582-9.191-3.46-16.307-5.634-28.069-8.895-49.318-16.505-63.748-22.83-14.429-6.523-24.115-13.244-29.057-20.162-4.941-7.116-7.017-15.814-6.226-26.092.791-10.279 2.372-23.819 4.744-40.621l8.302-59.3c3.163-21.94 10.279-41.115 21.348-57.521 11.267-16.406 25.697-29.156 43.289-38.248 17.79-9.29 37.754-13.936 59.895-13.936 33.21 0 58.51 10.081 75.9 30.243 17.59 19.964 23.92 46.452 18.98 79.462l-3.56 23.72h-80.06l3.56-23.72c1.58-9.488-.1-16.802-5.04-21.941-4.94-5.14-11.76-7.709-20.46-7.709-9.48 0-17.193 2.767-23.123 8.302-5.93 5.337-9.488 12.453-10.674 21.348l-8.302 59.3c-.791 5.139-1.186 9.192-1.186 12.157s.692 5.337 2.075 7.116c1.582 1.779 4.25 3.459 8.006 5.04 3.953 1.384 9.488 3.163 16.604 5.337 28.27 8.895 49.61 16.604 64.04 23.127 14.43 6.523 24.02 13.343 28.76 20.459 4.95 7.116 7.02 15.813 6.23 26.092-.79 10.278-2.37 23.621-4.74 40.027l-6.53 45.661c-4.74 32.813-18.38 59.3-40.91 79.462-22.34 20.162-50.309 30.243-83.913 30.243ZM1343.67-52.295l-11.26 80.055h-103.78l-12.45 88.95h87.76l-11.26 80.055h-87.77L1188.9 312.4h103.78l-11.27 80.055h-183.83l62.26-444.75h183.83ZM9.972 1049.46l87.465-624.755h154.105c48.036 0 83.716 14.3 107.04 42.9 23.324 28.599 31.793 65.668 25.407 111.205L339.84 895.35c-4.443 31.654-14.856 59.004-31.238 82.051-16.105 23.049-36.652 40.819-61.642 53.309-24.712 12.5-52.34 18.75-82.883 18.75H9.972ZM138.254 937h41.65c12.772 0 23.463-3.748 32.07-11.245 8.608-7.775 13.745-17.91 15.411-30.405l44.149-316.54c1.666-12.495-.556-22.491-6.664-29.988-6.109-7.775-15.827-11.662-29.155-11.662h-41.65L138.254 937ZM512.232 1062.78c-46.648 0-82.051-14.16-106.208-42.48-23.879-28.322-32.626-65.529-26.239-111.622l48.314-343.196c4.442-30.821 14.577-57.755 30.404-80.801 15.827-23.324 36.097-41.372 60.809-54.145 24.99-12.773 52.896-19.159 83.717-19.159 46.648 0 82.05 14.161 106.207 42.483 24.435 28.044 33.459 65.252 27.073 111.622l-48.314 343.196c-4.165 30.821-14.3 57.894-30.405 81.218-15.827 23.044-36.235 40.954-61.225 53.724-24.713 12.78-52.757 19.16-84.133 19.16Zm15.41-112.452c13.05 0 23.879-3.748 32.487-11.245 8.608-7.775 13.745-17.91 15.411-30.405l48.314-343.196c1.666-12.495-.695-22.491-7.081-29.988-6.109-7.775-15.688-11.662-28.738-11.662-13.051 0-23.88 3.887-32.487 11.662-8.33 7.497-13.328 17.493-14.994 29.988L492.24 908.678c-1.666 12.495.416 22.63 6.247 30.405 6.109 7.497 15.827 11.245 29.155 11.245ZM723.098 1049.46l87.465-624.755h83.3l85.799 404.838-29.988.833 56.646-405.671h104.12l-87.46 624.755h-83.302l-85.799-404.843 29.988-.833-56.644 405.676H723.098ZM1126.13 1049.46l71.64-512.3h-91.63l15.83-112.455h295.71l-15.82 112.455h-91.63l-71.64 512.3h-112.46Z"/>
    </mask>
    <path d="m1.572 392.455 62.265-444.75h109.705c32.417 0 57.422 9.785 75.014 29.354 17.592 19.37 24.017 46.155 19.273 80.351l-8.302 59.3c-4.744 33.801-18.68 60.585-41.807 80.352-22.929 19.569-50.701 29.353-83.316 29.353h-29.65l-23.127 166.04H1.572ZM116.02 146.36h29.65c9.092 0 16.703-2.668 22.83-8.005 6.128-5.535 9.785-12.75 10.971-21.645l8.302-59.3c1.186-8.895-.297-16.011-4.448-21.348-4.151-5.535-11.168-8.302-21.051-8.302h-29.65l-16.604 118.6ZM380.93-52.295 329.932 312.4h91.915l-11.267 80.055H238.609l62.266-444.75h80.055ZM667.886-52.295 656.619 27.76H552.844l-12.453 88.95h87.764l-11.267 80.055h-87.764L513.113 312.4h103.775l-11.267 80.055h-183.83l62.265-444.75h183.83Z" stroke="#fff" stroke-width="2" mask="url(#a)"/>
    <path d="m598.94 392.455 146.471-444.75h86.578l20.162 444.75h-81.834l-.593-69.381h-68.788l-20.162 69.381H598.94Zm125.123-149.436h45.068l-1.186-187.388h10.674l-54.556 187.388ZM957.427 401.943c-33.405 0-58.805-10.081-76.2-30.243-17.197-20.162-23.325-46.649-18.383-79.462l3.558-23.72h80.055l-3.558 23.72c-1.186 7.907.099 14.825 3.854 20.755 3.954 5.93 11.07 8.895 21.348 8.895 9.488 0 17.197-2.668 23.127-8.005 5.93-5.535 9.592-12.75 10.972-21.645l6.52-45.661c.79-5.139 1.19-9.191 1.19-12.156s-.79-5.337-2.37-7.116c-1.39-1.779-4.06-3.361-8.01-4.744-3.755-1.582-9.191-3.46-16.307-5.634-28.069-8.895-49.318-16.505-63.748-22.83-14.429-6.523-24.115-13.244-29.057-20.162-4.941-7.116-7.017-15.814-6.226-26.092.791-10.279 2.372-23.819 4.744-40.621l8.302-59.3c3.163-21.94 10.279-41.115 21.348-57.521 11.267-16.406 25.697-29.156 43.289-38.248 17.79-9.29 37.754-13.936 59.895-13.936 33.21 0 58.51 10.081 75.9 30.243 17.59 19.964 23.92 46.452 18.98 79.462l-3.56 23.72h-80.06l3.56-23.72c1.58-9.488-.1-16.802-5.04-21.941-4.94-5.14-11.76-7.709-20.46-7.709-9.48 0-17.193 2.767-23.123 8.302-5.93 5.337-9.488 12.453-10.674 21.348l-8.302 59.3c-.791 5.139-1.186 9.192-1.186 12.157s.692 5.337 2.075 7.116c1.582 1.779 4.25 3.459 8.006 5.04 3.953 1.384 9.488 3.163 16.604 5.337 28.27 8.895 49.61 16.604 64.04 23.127 14.43 6.523 24.02 13.343 28.76 20.459 4.95 7.116 7.02 15.813 6.23 26.092-.79 10.278-2.37 23.621-4.74 40.027l-6.53 45.661c-4.74 32.813-18.38 59.3-40.91 79.462-22.34 20.162-50.309 30.243-83.913 30.243ZM1343.67-52.295l-11.26 80.055h-103.78l-12.45 88.95h87.76l-11.26 80.055h-87.77L1188.9 312.4h103.78l-11.27 80.055h-183.83l62.26-444.75h183.83ZM9.972 1049.46l87.465-624.755h154.105c48.036 0 83.716 14.3 107.04 42.9 23.324 28.599 31.793 65.668 25.407 111.205L339.84 895.35c-4.443 31.654-14.856 59.004-31.238 82.051-16.105 23.049-36.652 40.819-61.642 53.309-24.712 12.5-52.34 18.75-82.883 18.75H9.972ZM138.254 937h41.65c12.772 0 23.463-3.748 32.07-11.245 8.608-7.775 13.745-17.91 15.411-30.405l44.149-316.54c1.666-12.495-.556-22.491-6.664-29.988-6.109-7.775-15.827-11.662-29.155-11.662h-41.65L138.254 937ZM512.232 1062.78c-46.648 0-82.051-14.16-106.208-42.48-23.879-28.322-32.626-65.529-26.239-111.622l48.314-343.196c4.442-30.821 14.577-57.755 30.404-80.801 15.827-23.324 36.097-41.372 60.809-54.145 24.99-12.773 52.896-19.159 83.717-19.159 46.648 0 82.05 14.161 106.207 42.483 24.435 28.044 33.459 65.252 27.073 111.622l-48.314 343.196c-4.165 30.821-14.3 57.894-30.405 81.218-15.827 23.044-36.235 40.954-61.225 53.724-24.713 12.78-52.757 19.16-84.133 19.16Zm15.41-112.452c13.05 0 23.879-3.748 32.487-11.245 8.608-7.775 13.745-17.91 15.411-30.405l48.314-343.196c1.666-12.495-.695-22.491-7.081-29.988-6.109-7.775-15.688-11.662-28.738-11.662-13.051 0-23.88 3.887-32.487 11.662-8.33 7.497-13.328 17.493-14.994 29.988L492.24 908.678c-1.666 12.495.416 22.63 6.247 30.405 6.109 7.497 15.827 11.245 29.155 11.245ZM723.098 1049.46l87.465-624.755h83.3l85.799 404.838-29.988.833 56.646-405.671h104.12l-87.46 624.755h-83.302l-85.799-404.843 29.988-.833-56.644 405.676H723.098ZM1126.13 1049.46l71.64-512.3h-91.63l15.83-112.455h295.71l-15.82 112.455h-91.63l-71.64 512.3h-112.46Z" stroke="#fff" stroke-width="2" mask="url(#a)"/>
</svg>